<svg viewBox="0 0 33 30" fill="none" xmlns="http://www.w3.org/2000/svg">
<path d="M2.76816 30C2.02059 30 1.37232 29.7393 0.823379 29.218C0.27446 28.6967 0 28.081 0 27.371V9.12594C0 8.41342 0.27446 7.79558 0.823379 7.27244C1.37232 6.7493 2.02059 6.48773 2.76816 6.48773H9.77076V2.62899C9.77076 1.92547 10.0452 1.31143 10.5942 0.786874C11.1431 0.262292 11.7913 0 12.5389 0H20.4513C21.1989 0 21.8471 0.262292 22.3961 0.786874C22.945 1.31143 23.2195 1.92547 23.2195 2.62899V6.48773H30.2221C30.9723 6.48773 31.6229 6.7493 32.1737 7.27244C32.7246 7.79558 33 8.41342 33 9.12594V27.371C33 28.081 32.7246 28.6967 32.1737 29.218C31.6229 29.7393 30.9723 30 30.2221 30H2.76816ZM12.5389 6.48773H20.4513V2.62899H12.5389V6.48773ZM30.2221 20.0009H20.1925V22.3161H12.879V20.0009H2.76816V27.371H30.2221V20.0009ZM15.3168 20.0009H17.7547V17.6856H15.3168V20.0009ZM2.76816 17.6856H12.879V15.3704H20.1925V17.6856H30.2221V9.12594H2.76816V17.6856Z" fill="black"/>
</svg>
