<svg viewBox="0 0 29 36" fill="none" xmlns="http://www.w3.org/2000/svg">
<path d="M14.4952 35.5C12.3978 33.6234 10.1056 32.1823 7.61854 31.1769C5.13152 30.1715 2.59201 29.6689 0 29.6689V12.2716C2.53885 12.2716 5.04685 12.8388 7.524 13.973C10.0011 15.1073 12.3249 16.6912 14.4952 18.7247C16.6656 16.6912 18.9901 15.1073 21.4687 13.973C23.9473 12.8388 26.4577 12.2716 29 12.2716V29.6689C26.4072 29.6689 23.8659 30.1715 21.3761 31.1769C18.8863 32.1823 16.5927 33.6234 14.4952 35.5ZM14.4952 32.0648C16.3321 30.7095 18.2394 29.6212 20.2171 28.7998C22.1949 27.9784 24.2199 27.4507 26.2921 27.2169V15.2624C24.5155 15.5383 22.6367 16.2468 20.6558 17.3881C18.6749 18.5294 16.6214 20.1168 14.4952 22.1503C12.2095 20.0351 10.1209 18.4254 8.2292 17.3212C6.33752 16.2169 4.49393 15.5307 2.69842 15.2624V27.2169C4.75166 27.4443 6.76717 27.9687 8.74492 28.7902C10.7227 29.6115 12.6395 30.7031 14.4952 32.0648ZM14.6177 13.1245C12.8737 13.1245 11.4032 12.5165 10.2061 11.3003C9.00898 10.0842 8.41044 8.58861 8.41044 6.81353C8.41044 5.04109 9.00778 3.54571 10.2025 2.32741C11.3972 1.10914 12.8665 0.5 14.6105 0.5C16.3544 0.5 17.825 1.10958 19.0221 2.32874C20.2192 3.5479 20.8177 5.0443 20.8177 6.81796C20.8177 8.59161 20.2204 10.0861 19.0257 11.3015C17.831 12.5169 16.3616 13.1245 14.6177 13.1245ZM14.624 10.4793C15.6219 10.4793 16.4728 10.121 17.1769 9.40436C17.8809 8.68778 18.2329 7.82352 18.2329 6.81156C18.2329 5.79958 17.8776 4.93554 17.167 4.21945C16.4563 3.50333 15.6021 3.14527 14.6042 3.14527C13.6063 3.14527 12.7553 3.50507 12.0513 4.22468C11.3472 4.94431 10.9952 5.8094 10.9952 6.81993C10.9952 7.83312 11.3505 8.6963 12.0612 9.40947C12.7718 10.1227 13.6261 10.4793 14.624 10.4793Z" fill="white"/>
</svg>
