<svg viewBox="0 0 46 47" fill="none" xmlns="http://www.w3.org/2000/svg">
<path d="M1.34901 10.1076L0.454425 10.5545L1.34901 10.1076ZM32.8148 36.4077H31.8148V37.4077H32.8148V36.4077ZM14.9683 45.3309V44.3309H14.9184L14.8688 44.3359L14.9683 45.3309ZM14.4973 7.22922C13.945 7.22922 13.4973 7.67693 13.4973 8.22922C13.4973 8.7815 13.945 9.22922 14.4973 9.22922V7.22922ZM15.4973 9.22922C16.0495 9.22922 16.4973 8.7815 16.4973 8.22922C16.4973 7.67693 16.0495 7.22922 15.4973 7.22922V9.22922ZM27.6484 11.3345C27.0962 11.3345 26.6484 11.7822 26.6484 12.3345C26.6484 12.8868 27.0962 13.3345 27.6484 13.3345V11.3345ZM28.5877 13.3345C29.14 13.3345 29.5877 12.8868 29.5877 12.3345C29.5877 11.7822 29.14 11.3345 28.5877 11.3345V13.3345ZM14.4971 15.9702C13.9448 15.9702 13.4971 16.4179 13.4971 16.9702C13.4971 17.5225 13.9448 17.9702 14.4971 17.9702V15.9702ZM15.4971 17.9702C16.0494 17.9702 16.4971 17.5225 16.4971 16.9702C16.4971 16.4179 16.0494 15.9702 15.4971 15.9702V17.9702ZM23.891 25.5453C23.3387 25.5453 22.891 25.993 22.891 26.5453C22.891 27.0976 23.3387 27.5453 23.891 27.5453V25.5453ZM26.7088 26.5453V27.5453H27.1346L27.4297 27.2384L26.7088 26.5453ZM18.2545 7.22922C17.7022 7.22922 17.2545 7.67693 17.2545 8.22922C17.2545 8.7815 17.7022 9.22922 18.2545 9.22922V7.22922ZM28.5867 9.22922C29.1389 9.22922 29.5867 8.7815 29.5867 8.22922C29.5867 7.67693 29.1389 7.22922 28.5867 7.22922V9.22922ZM14.4971 11.3345C13.9448 11.3345 13.4971 11.7822 13.4971 12.3345C13.4971 12.8868 13.9448 13.3345 14.4971 13.3345V11.3345ZM24.8292 13.3345C25.3815 13.3345 25.8292 12.8868 25.8292 12.3345C25.8292 11.7822 25.3815 11.3345 24.8292 11.3345V13.3345ZM14.4973 25.5453C13.945 25.5453 13.4973 25.993 13.4973 26.5453C13.4973 27.0976 13.945 27.5453 14.4973 27.5453V25.5453ZM20.4973 27.5453C21.0495 27.5453 21.4973 27.0976 21.4973 26.5453C21.4973 25.993 21.0495 25.5453 20.4973 25.5453V27.5453ZM18.2549 15.9702C17.7026 15.9702 17.2549 16.4179 17.2549 16.9702C17.2549 17.5225 17.7026 17.9702 18.2549 17.9702V15.9702ZM26.7085 17.9702C27.2608 17.9702 27.7085 17.5225 27.7085 16.9702C27.7085 16.4179 27.2608 15.9702 26.7085 15.9702V17.9702ZM14.4971 20.7881C13.9448 20.7881 13.4971 21.2358 13.4971 21.7881C13.4971 22.3404 13.9448 22.7881 14.4971 22.7881V20.7881ZM26.7078 22.7881C27.2601 22.7881 27.7078 22.3404 27.7078 21.7881C27.7078 21.2358 27.2601 20.7881 26.7078 20.7881V22.7881ZM39.1699 15.0277C39.5527 14.6295 39.5403 13.9965 39.1421 13.6137C38.744 13.2309 38.111 13.2434 37.7282 13.6415L39.1699 15.0277ZM30.4666 21.8485L29.5146 22.1545L29.6049 22.4355L29.8334 22.6224L30.4666 21.8485ZM42.2074 17.6217L42.9967 18.2356L43.3401 17.7942L43.1437 17.2705L42.2074 17.6217ZM41.2681 13.8645L41.2685 14.8645L41.2681 13.8645ZM43.1467 14.3342L42.4396 13.6271L43.1467 14.3342ZM2.24359 9.66074C2.24742 9.66841 2.20164 9.55752 2.14642 9.27976C2.0966 9.02911 2.05036 8.70045 2.02365 8.3204C1.96987 7.55515 1.99882 6.63286 2.20468 5.75755C2.41111 4.87981 2.77965 4.11292 3.35515 3.57064C3.91048 3.04738 4.74126 2.65405 6.04545 2.65405V0.654053C4.29627 0.654053 2.95466 1.20002 1.98358 2.11504C1.03268 3.01104 0.520792 4.18144 0.2578 5.29968C-0.00576591 6.42036 -0.0352347 7.55276 0.0285682 8.46062C0.0606512 8.91713 0.117204 9.32962 0.184803 9.66969C0.247014 9.98266 0.333286 10.3121 0.454425 10.5545L2.24359 9.66074ZM6.04545 2.65405H28.588V0.654053H6.04545V2.65405ZM28.588 2.65405C29.2207 2.65405 30.0446 2.98748 30.7254 3.61966C31.3958 4.24222 31.8148 5.04898 31.8148 5.88085H33.8148C33.8148 4.3645 33.0596 3.05786 32.0863 2.15407C31.1233 1.25991 29.8338 0.654053 28.588 0.654053V2.65405ZM32.8148 37.4077H40.3291V35.4077H32.8148V37.4077ZM40.3291 37.4077C40.3209 37.4077 40.3473 37.4076 40.3914 37.4244C40.4313 37.4396 40.4754 37.4648 40.5171 37.5048C40.5803 37.5655 40.738 37.7563 40.738 38.2863H42.738C42.738 37.3134 42.426 36.5649 41.9022 36.062C41.4037 35.5835 40.7948 35.4077 40.3291 35.4077V37.4077ZM40.738 38.2863C40.738 39.3282 40.8353 40.8314 40.2887 42.1234C40.0308 42.7331 39.6377 43.2622 39.0251 43.6485C38.4068 44.0385 37.4881 44.3309 36.1023 44.3309V46.3309C37.7691 46.3309 39.0813 45.9776 40.092 45.3402C41.1085 44.6992 41.7428 43.8194 42.1306 42.9027C42.8755 41.1421 42.738 39.1229 42.738 38.2863H40.738ZM36.1023 44.3309H14.9683V46.3309H36.1023V44.3309ZM14.8688 44.3359C14.3268 44.3901 13.4452 44.2412 12.7047 43.569C11.987 42.9176 11.2709 41.6528 11.2709 39.2256H9.27089C9.27089 42.0584 10.1207 43.9245 11.3604 45.0499C12.5772 46.1545 14.0443 46.4283 15.0678 46.326L14.8688 44.3359ZM11.2709 39.2256C11.2709 33.9903 11.4275 18.2401 11.2707 11.0252L9.27113 11.0687C9.42738 18.2562 9.27089 33.9408 9.27089 39.2256H11.2709ZM10.2709 10.0469H2.2879V12.0469H10.2709V10.0469ZM2.2879 11.0469C2.2879 10.0469 2.28888 10.0469 2.28985 10.0469C2.29017 10.0469 2.29115 10.0469 2.29179 10.0469C2.29309 10.0469 2.29437 10.047 2.29566 10.047C2.29823 10.047 2.30077 10.047 2.3033 10.0471C2.30837 10.0471 2.31335 10.0473 2.31827 10.0474C2.3281 10.0477 2.33764 10.0482 2.34689 10.0488C2.36541 10.05 2.38275 10.0517 2.39897 10.0539C2.43151 10.0582 2.45908 10.0642 2.48193 10.0707C2.52909 10.0842 2.55033 10.0983 2.54922 10.0975C2.54895 10.0974 2.41891 10.0117 2.24359 9.66074L0.454425 10.5545C0.748341 11.1429 1.08775 11.5269 1.43961 11.7615C1.61458 11.8782 1.78256 11.9509 1.93244 11.9938C2.00666 12.015 2.07458 12.0283 2.13464 12.0363C2.16461 12.0403 2.19251 12.043 2.21813 12.0446C2.23094 12.0455 2.24317 12.046 2.25481 12.0464C2.26063 12.0466 2.2663 12.0467 2.27181 12.0468C2.27457 12.0468 2.27729 12.0469 2.27997 12.0469C2.28131 12.0469 2.28264 12.0469 2.28397 12.0469C2.28463 12.0469 2.28561 12.0469 2.28594 12.0469C2.28692 12.0469 2.2879 12.0469 2.2879 11.0469ZM6.51391 2.65405C6.77854 2.65405 7.51804 2.85417 8.19473 4.03108C8.87422 5.21287 9.45465 7.34679 9.27214 10.997L11.2696 11.0969C11.4628 7.23277 10.8693 4.67025 9.92856 3.03418C8.98506 1.39322 7.65822 0.654053 6.51391 0.654053V2.65405ZM14.4973 9.22922H15.4973V7.22922H14.4973V9.22922ZM27.6484 13.3345H28.5877V11.3345H27.6484V13.3345ZM14.4971 17.9702H15.4971V15.9702H14.4971V17.9702ZM23.891 27.5453H26.7088V25.5453H23.891V27.5453ZM18.2545 9.22922H28.5867V7.22922H18.2545V9.22922ZM14.4971 13.3345H24.8292V11.3345H14.4971V13.3345ZM14.4973 27.5453H20.4973V25.5453H14.4973V27.5453ZM18.2549 17.9702H26.7085V15.9702L18.2549 15.9702V17.9702ZM14.4971 22.7881H26.7078V20.7881H14.4971V22.7881ZM37.7282 13.6415L25.988 25.8522L27.4297 27.2384L39.1699 15.0277L37.7282 13.6415ZM45.263 7.52163C44.976 7.23471 44.6097 7.11471 44.3388 7.0564C44.0454 6.99327 43.7207 6.97297 43.3915 6.97819C42.73 6.98869 41.9253 7.10487 41.0553 7.30982C39.3111 7.72068 37.1793 8.51805 35.1996 9.70832C33.2254 10.8953 31.3365 12.5131 30.1708 14.5957C28.9864 16.7118 28.5821 19.2533 29.5146 22.1545L31.4187 21.5425C30.6605 19.1836 30.9958 17.2166 31.916 15.5726C32.8549 13.8952 34.4355 12.5014 36.2302 11.4224C38.0194 10.3466 39.9559 9.62353 41.5139 9.25653C42.2949 9.07255 42.9498 8.98545 43.4232 8.97794C43.6614 8.97416 43.8229 8.99118 43.918 9.01164C44.0355 9.03692 43.9598 9.04679 43.8489 8.93596L45.263 7.52163ZM29.8334 22.6224C30.9209 23.5122 32.8399 24.2247 35.1949 23.7823C37.561 23.3378 40.2623 21.7514 42.9967 18.2356L41.418 17.0077C38.8925 20.2549 36.5844 21.4863 34.8256 21.8167C33.0556 22.1492 31.7343 21.5936 31.0999 21.0745L29.8334 22.6224ZM42.2074 17.6217C43.1437 17.2705 43.1437 17.2705 43.1437 17.2706C43.1437 17.2705 43.1437 17.2706 43.1437 17.2705C43.1437 17.2705 43.1436 17.2704 43.1436 17.2702C43.1435 17.2699 43.1433 17.2694 43.143 17.2686C43.1424 17.2671 43.1415 17.2647 43.1403 17.2614C43.1378 17.2548 43.1341 17.2449 43.1292 17.2317C43.1195 17.2054 43.1051 17.1664 43.0868 17.1164C43.0502 17.0165 42.9982 16.8731 42.9371 16.7008C42.8147 16.355 42.6577 15.8982 42.516 15.4449C42.3714 14.9822 42.2542 14.559 42.1995 14.2674C42.1695 14.1072 42.1733 14.0616 42.1716 14.0885C42.1714 14.0912 42.1671 14.2294 42.0727 14.3971C41.9425 14.6285 41.66 14.8644 41.2685 14.8645L41.2677 12.8645C40.8175 12.8647 40.4908 13.13 40.3297 13.4164C40.2044 13.6391 40.1821 13.858 40.1755 13.9635C40.161 14.1959 40.1978 14.4439 40.2338 14.6359C40.3112 15.0488 40.4581 15.5649 40.6071 16.0415C40.759 16.5274 40.9249 17.0099 41.0519 17.3685C41.1157 17.5485 41.1701 17.6986 41.2087 17.8041C41.228 17.8568 41.2434 17.8985 41.2541 17.9272C41.2594 17.9416 41.2635 17.9527 41.2664 17.9604C41.2678 17.9643 41.269 17.9672 41.2697 17.9693C41.2701 17.9704 41.2704 17.9712 41.2707 17.9718C41.2708 17.9721 41.2709 17.9723 41.2709 17.9725C41.271 17.9726 41.271 17.9727 41.271 17.9727C41.271 17.9728 41.2711 17.9729 42.2074 17.6217ZM41.2685 14.8645C41.1217 14.8646 41.0735 14.8118 41.2467 14.8984C41.3095 14.9297 41.3783 14.967 41.4683 15.0158C41.5526 15.0615 41.655 15.1171 41.7603 15.1698C41.9539 15.2666 42.2529 15.4042 42.5859 15.4496C42.9599 15.5007 43.4542 15.4408 43.8538 15.0413L42.4396 13.6271C42.6044 13.4623 42.8052 13.461 42.8564 13.468C42.8666 13.4694 42.8133 13.4602 42.6547 13.3809C42.5839 13.3455 42.5102 13.3057 42.422 13.2578C42.3396 13.2131 42.2395 13.1587 42.1409 13.1094C42.0429 13.0604 41.9219 13.004 41.7913 12.9588C41.6666 12.9157 41.4821 12.8644 41.2677 12.8645L41.2685 14.8645ZM43.8538 15.0413C43.9921 14.903 44.1281 14.7088 44.2376 14.5408C44.3607 14.3519 44.4988 14.1198 44.6409 13.8591C44.9246 13.3391 45.2405 12.6766 45.4955 11.9755C45.7471 11.2839 45.9587 10.5025 45.995 9.75986C46.0305 9.03419 45.9044 8.16292 45.263 7.52163L43.8489 8.93596C43.912 8.99906 44.0207 9.18446 43.9974 9.66226C43.9749 10.1231 43.8342 10.692 43.616 11.2919C43.4012 11.8824 43.1299 12.4528 42.8852 12.9014C42.7631 13.1251 42.6517 13.3113 42.562 13.4488C42.4587 13.6074 42.4186 13.648 42.4396 13.6271L43.8538 15.0413ZM31.8148 5.88085V36.4077H33.8148V5.88085H31.8148Z" fill="white"/>
</svg>
