<svg viewBox="0 0 35 32" fill="none" xmlns="http://www.w3.org/2000/svg">
<path d="M3.72959 32C2.36329 32 1.39453 31.3813 0.8233 30.1438C0.252068 28.9063 0.43781 27.7746 1.38052 26.7486L12.4037 14.5488V2.98635H10.3248C9.8949 2.98635 9.5336 2.84212 9.24089 2.55367C8.94818 2.26522 8.80183 1.90916 8.80183 1.4855C8.80183 1.06181 8.94818 0.708298 9.24089 0.424962C9.5336 0.141654 9.8949 0 10.3248 0H24.6737C25.1036 0 25.4666 0.144227 25.7629 0.432677C26.0592 0.721128 26.2073 1.07718 26.2073 1.50084C26.2073 1.92453 26.0592 2.27805 25.7629 2.56138C25.4666 2.84469 25.1036 2.98635 24.6737 2.98635H22.6055V14.5488L33.6286 26.7486C34.5642 27.7746 34.7464 28.9063 34.1752 30.1438C33.6039 31.3813 32.6352 32 31.2689 32H3.72959ZM3.40694 29.0137H31.6022L19.5489 15.6494V2.98635H15.4495V15.6494L3.40694 29.0137Z" fill="black"/>
</svg>
