<svg viewBox="0 0 33 34" fill="none" xmlns="http://www.w3.org/2000/svg">
<path d="M16.4918 16.469C14.2025 16.469 12.3307 15.7419 10.8766 14.2878C9.4224 12.8336 8.69531 10.9618 8.69531 8.6725C8.69531 6.3832 9.4224 4.51065 10.8766 3.05485C12.3307 1.59905 14.2025 0.871155 16.4918 0.871155C18.7811 0.871155 20.6556 1.59905 22.1154 3.05485C23.5752 4.51065 24.3051 6.3832 24.3051 8.6725C24.3051 10.9618 23.5752 12.8336 22.1154 14.2878C20.6556 15.7419 18.7811 16.469 16.4918 16.469ZM0.195312 33.1288V28.1085C0.195312 26.7899 0.527229 25.6559 1.19106 24.7064C1.8549 23.7568 2.71211 23.0357 3.76271 22.543C6.01198 21.535 8.1734 20.779 10.247 20.275C12.3206 19.771 14.4019 19.519 16.491 19.519C18.5954 19.519 20.6753 19.7793 22.7307 20.3C24.7861 20.8206 26.9331 21.5715 29.1718 22.5527C30.2678 23.0391 31.1474 23.7557 31.8105 24.7023C32.4736 25.649 32.8051 26.7833 32.8051 28.1053V33.1288H0.195312ZM3.60181 29.7223H29.3866V28.1538C29.3866 27.6256 29.2283 27.122 28.9116 26.6429C28.5949 26.1638 28.2033 25.8087 27.7366 25.5777C25.6351 24.5683 23.7111 23.8759 21.9644 23.5006C20.2177 23.1252 18.3923 22.9375 16.4883 22.9375C14.6002 22.9375 12.7621 23.1252 10.9741 23.5006C9.18608 23.8759 7.2637 24.5677 5.20696 25.5759C4.73686 25.8069 4.35181 26.1622 4.05181 26.6417C3.75181 27.1211 3.60181 27.6252 3.60181 28.1538V29.7223ZM16.4918 13.0625C17.7615 13.0625 18.8114 12.6481 19.6415 11.8192C20.4716 10.9904 20.8866 9.9408 20.8866 8.67051C20.8866 7.39694 20.4724 6.34642 19.6439 5.51895C18.8155 4.69145 17.7664 4.2777 16.4967 4.2777C15.2269 4.2777 14.177 4.69164 13.3469 5.5195C12.5168 6.34734 12.1018 7.3957 12.1018 8.6646C12.1018 9.93677 12.516 10.9878 13.3445 11.8177C14.1729 12.6476 15.222 13.0625 16.4918 13.0625Z" fill="black"/>
</svg>
