<svg viewBox="0 0 31 32" fill="none" xmlns="http://www.w3.org/2000/svg">
<path d="M15.5 14.6302L17.5983 12.532C16.7477 11.4547 16.0774 10.1179 15.5407 8.72681C14.8723 6.98892 14.3898 5.09022 14.0411 3.34651L13.8861 2.53278C11.1966 2.85199 8.66516 3.97256 6.62067 5.74895L15.5 14.6302ZM18.968 13.9017L16.8698 16L25.7511 24.8813C27.5274 22.8368 28.648 20.3054 28.9672 17.6158L28.1574 17.4628C26.4137 17.114 24.515 16.6297 22.7771 15.9613C21.384 15.4265 20.0453 14.7542 18.968 13.9017ZM29.0583 15.6648C28.9836 12.5187 27.814 9.49716 25.7511 7.12067L20.3494 12.5203C21.1825 13.1403 22.254 13.6847 23.4726 14.1536C25.0729 14.7697 26.8573 15.227 28.5371 15.5641L29.0583 15.6648ZM18.9797 11.1506L24.3813 5.74895C22.0048 3.68598 18.9832 2.51641 15.8371 2.44172L15.9398 2.96484C16.2769 4.64654 16.7342 6.43093 17.3503 8.03127C17.8172 9.24799 18.3597 10.3175 18.9797 11.1506ZM15.5 17.3678L13.4056 19.4622C14.2581 20.5394 14.9285 21.8782 15.4651 23.2713C16.1335 25.0091 16.6179 26.9078 16.9667 28.6516C17.0209 28.9267 17.0726 29.1979 17.1216 29.4653C19.8091 29.1449 22.3384 28.0244 24.3813 26.2491L15.5 17.3678ZM12.0242 20.8436L6.61873 26.2491C8.99624 28.3129 12.0193 29.4825 15.1668 29.5563L15.066 29.0313C14.7289 27.3496 14.2717 25.5671 13.6555 23.9668C13.1886 22.7481 12.6442 21.6787 12.0242 20.8456M10.6525 19.4777C9.8194 18.8577 8.74992 18.3153 7.53321 17.8464C5.93287 17.2303 4.14848 16.7711 2.46871 16.4359L1.94172 16.3332C2.01551 19.4807 3.18514 22.5038 5.24895 24.8813L10.6525 19.4777ZM12.0339 18.0944L14.1302 16L5.24895 7.11873C3.47327 9.16216 2.35274 11.6921 2.03278 14.3803C2.30144 14.4294 2.57333 14.481 2.84845 14.5353C4.59216 14.884 6.49086 15.3684 8.22875 16.0368C9.61984 16.5715 10.9586 17.2438 12.0339 18.0944ZM26.4602 26.9602C25.0208 28.3995 23.3121 29.5412 21.4316 30.3201C19.551 31.0991 17.5355 31.5 15.5 31.5C13.4645 31.5 11.449 31.0991 9.56841 30.3201C7.68786 29.5412 5.97915 28.3995 4.53984 26.9602C3.10054 25.5208 1.95882 23.8121 1.17987 21.9316C0.400919 20.051 -1.51656e-08 18.0355 0 16C1.51656e-08 13.9645 0.400919 11.949 1.17987 10.0684C1.95882 8.18786 3.10054 6.47915 4.53984 5.03984C7.44666 2.13303 11.3891 0.5 15.5 0.5C19.6109 0.5 23.5533 2.13303 26.4602 5.03984C29.367 7.94666 31 11.8891 31 16C31 20.1109 29.367 24.0533 26.4602 26.9602Z" fill="black"/>
</svg>
