<svg viewBox="0 0 39 38" fill="none" xmlns="http://www.w3.org/2000/svg">
<path d="M1.5 36H36.5284M25.1578 18.4095L34.557 20.8883C35.0577 21.0121 35.5283 21.2326 35.9415 21.5371C36.3547 21.8415 36.7021 22.2238 36.9636 22.6616C37.2252 23.0994 37.3955 23.584 37.4648 24.0871C37.5341 24.5903 37.5009 25.102 37.3672 25.5925C37.2334 26.0829 37.0019 26.5423 36.6859 26.9439C36.3699 27.3454 35.9759 27.6812 35.5267 27.9315C35.0776 28.1818 34.5823 28.3418 34.0697 28.402C33.5571 28.4623 33.0374 28.4216 32.541 28.2824L4.34508 20.8519L1.72768 8.27248L7.36725 9.75781L10.1189 14.4473L15.7585 15.9327L15.525 2L21.1645 3.48725L25.1578 18.4095Z" stroke="white" stroke-width="3" stroke-linecap="round" stroke-linejoin="round"/>
</svg>
