<svg viewBox="0 0 40 38" fill="none" xmlns="http://www.w3.org/2000/svg">
<path d="M2 36H37.0284M25.6578 18.4095L35.057 20.8883C35.5577 21.0121 36.0283 21.2326 36.4415 21.5371C36.8547 21.8415 37.2021 22.2238 37.4636 22.6616C37.7252 23.0994 37.8955 23.584 37.9648 24.0871C38.0341 24.5903 38.0009 25.102 37.8672 25.5925C37.7334 26.0829 37.5019 26.5423 37.1859 26.9439C36.8699 27.3454 36.4759 27.6812 36.0267 27.9315C35.5776 28.1818 35.0823 28.3418 34.5697 28.402C34.0571 28.4623 33.5374 28.4216 33.041 28.2824L4.84508 20.8519L2.22768 8.27248L7.86725 9.75781L10.6189 14.4473L16.2585 15.9327L16.025 2L21.6645 3.48725L25.6578 18.4095Z" stroke="black" stroke-width="3" stroke-linecap="round" stroke-linejoin="round"/>
</svg>
