<svg width="102" height="79" viewBox="0 0 102 79" fill="none" xmlns="http://www.w3.org/2000/svg">
<path d="M27.2383 45.5157V64.4217H34.4172V45.5157H35.8754V39.8918H34.4172V31.9944H35.3145V28.285H35.8754V26.3705H34.4172V22.4218H35.3145V21.1055H34.4172C34.2676 19.8292 33.3403 17.2765 30.8278 17.2765C28.3152 17.2765 27.3879 19.8292 27.2383 21.1055H26.341V22.4218H27.2383V26.3705H26.341H25.668V28.285H26.341V31.9944H27.2383V39.8918H25.668V45.5157H27.2383Z" fill="white"/>
<path d="M30.3477 18.2009V13.5789H31.1983V18.2009H30.3477Z" fill="white"/>
<path d="M15.2155 52.6354V64.5007H21.8703V52.6354H23.2221V47.3242H21.8703V39.866H22.7022V36.363H23.2221V34.5549H21.8703V30.8258H22.7022V29.5828H21.8703C21.7317 28.3774 20.8721 25.9667 18.5429 25.9667C16.2137 25.9667 15.3542 28.3774 15.2155 29.5828H14.3837V30.8258H15.2155V34.5549H14.3837H13.7598V36.363H14.3837V39.866H15.2155V47.3242H13.7598V52.6354H15.2155Z" fill="white"/>
<path d="M18.334 26.1927V21.8986H18.8539V26.1927H18.334Z" fill="white"/>
<path d="M75.1328 44.5914V63.4973H67.9539V44.5914H66.4957V38.9675H67.9539V31.0701H67.0566V27.3607H66.4957V25.4462H67.9539V21.4975H67.0566V20.1812H67.9539C68.1035 18.9049 69.0307 16.3522 71.5433 16.3522C74.0559 16.3522 74.9832 18.9049 75.1328 20.1812H76.0301V21.4975H75.1328V25.4462H76.0301H76.7031V27.3607H76.0301V31.0701H75.1328V38.9675H76.7031V44.5914H75.1328Z" fill="white"/>
<path d="M72.0254 17.2766V12.6545H71.1748V17.2766H72.0254Z" fill="white"/>
<path d="M87.1575 51.7111V63.5764H80.5027V51.7111H79.1509V46.3999H80.5027V38.9417H79.6708V35.4386H79.1509V33.6306H80.5027V29.9015H79.6708V28.6585H80.5027C80.6413 27.4531 81.5009 25.0424 83.8301 25.0424C86.1593 25.0424 87.0189 27.4531 87.1575 28.6585H87.9894V29.9015H87.1575V33.6306H87.9894H88.6133V35.4386H87.9894V38.9417H87.1575V46.3999H88.6133V51.7111H87.1575Z" fill="white"/>
<path d="M84.0391 25.2684V20.9742H83.5192V25.2684H84.0391Z" fill="white"/>
<path d="M38.4277 42.0432V55.7182H64.0111V42.0432H38.4277Z" fill="white"/>
<path d="M42.967 33.916V41.4327H58.8837V33.916C58.017 30.5108 56.4114 29.5992 55.717 29.569H46.1337C44.667 29.569 43.4114 32.467 42.967 33.916Z" fill="white"/>
<path d="M55.4398 28.3695H46.9336L51.2334 24.6719L55.4398 28.3695Z" fill="white"/>
<ellipse cx="51.2303" cy="22.5567" rx="1.14825" ry="1.24787" fill="white"/>
<ellipse cx="51.2304" cy="19.7493" rx="0.574125" ry="0.623935" fill="white"/>
<path d="M100.668 56.2617C104.084 24.8363 78.5803 1.56152 51.3342 1.56152C24.0882 1.56152 0.417643 22.3005 2.00091 56.2617" stroke="white" stroke-width="2"/>
<path d="M1 51.9147H102V70.2084H1V51.9147Z" fill="white"/>
<path d="M15.5861 58.5537C15.366 58.5537 15.1696 58.6227 14.9969 58.7609C14.8242 58.8947 14.6796 59.0911 14.563 59.3502C14.4465 59.6049 14.358 59.9157 14.2975 60.2826C14.2371 60.6496 14.2069 61.064 14.2069 61.5259C14.2069 62.1648 14.2608 62.698 14.3688 63.1253C14.481 63.5527 14.6472 63.8722 14.8674 64.0837C15.0875 64.2952 15.3638 64.401 15.6962 64.401C16.0027 64.401 16.2963 64.3427 16.5769 64.2262C16.8618 64.1096 17.1467 63.9693 17.4316 63.8052V65.8256C17.1295 66.0026 16.8014 66.1342 16.4474 66.2206C16.0977 66.3069 15.7264 66.3501 15.3336 66.3501C14.5825 66.3501 13.9479 66.1645 13.4298 65.7932C12.9161 65.4219 12.5254 64.8759 12.2578 64.1549C11.9944 63.434 11.8628 62.5533 11.8628 61.5129C11.8628 60.7834 11.9426 60.1186 12.1024 59.5185C12.2664 58.9185 12.5017 58.4026 12.8082 57.9709C13.1147 57.5392 13.4838 57.2068 13.9155 56.9737C14.3515 56.7362 14.8436 56.6175 15.3919 56.6175C15.8106 56.6175 16.2121 56.6715 16.5963 56.7794C16.9848 56.8873 17.369 57.0557 17.7489 57.2845L17.1532 59.1365C16.9028 58.9595 16.6503 58.8192 16.3956 58.7156C16.1409 58.6076 15.8711 58.5537 15.5861 58.5537ZM23.266 66.2206L22.9099 64.3751H20.8636L20.5075 66.2206H18.0662L20.3715 56.7535H23.3437L25.6813 66.2206H23.266ZM22.5602 62.4389L22.1781 60.3215C22.135 60.084 22.094 59.8531 22.0551 59.6286C22.0206 59.4041 21.9882 59.1904 21.958 58.9875C21.9321 58.7803 21.9083 58.5882 21.8867 58.4112C21.8695 58.5796 21.8457 58.7652 21.8155 58.9681C21.7896 59.171 21.7572 59.3847 21.7184 59.6092C21.6795 59.8293 21.6385 60.0581 21.5953 60.2956L21.1939 62.4389H22.5602ZM28.9968 56.7535C29.7306 56.7535 30.3415 56.8571 30.8293 57.0643C31.3171 57.2715 31.6819 57.5824 31.9236 57.9968C32.1654 58.4069 32.2863 58.9249 32.2863 59.5509C32.2863 59.9178 32.2388 60.2567 32.1438 60.5675C32.0488 60.8784 31.9064 61.1611 31.7164 61.4158C31.5265 61.6705 31.2869 61.8972 30.9977 62.0957L32.9727 66.2206H30.4926L29.0097 62.6656H28.7183V66.2206H26.4649V56.7535H28.9968ZM28.9709 58.6379H28.7183V60.9172H28.9579C29.2946 60.9172 29.5472 60.8136 29.7155 60.6064C29.8839 60.3992 29.9681 60.0862 29.9681 59.6675C29.9681 59.3221 29.8839 59.0652 29.7155 58.8969C29.5515 58.7242 29.3033 58.6379 28.9709 58.6379ZM38.1077 66.2206L37.7515 64.3751H35.7053L35.3491 66.2206H32.9079L35.2132 56.7535H38.1854L40.523 66.2206H38.1077ZM37.4019 62.4389L37.0198 60.3215C36.9766 60.084 36.9356 59.8531 36.8968 59.6286C36.8622 59.4041 36.8299 59.1904 36.7996 58.9875C36.7737 58.7803 36.75 58.5882 36.7284 58.4112C36.7111 58.5796 36.6874 58.7652 36.6572 58.9681C36.6313 59.171 36.5989 59.3847 36.56 59.6092C36.5212 59.8293 36.4802 60.0581 36.437 60.2956L36.0355 62.4389H37.4019ZM47.9503 56.7535L45.535 66.2206H42.9124L40.523 56.7535H42.8865L43.8384 61.4223C43.8816 61.6295 43.9291 61.8842 43.9809 62.1864C44.037 62.4886 44.0866 62.7886 44.1298 63.0865C44.173 63.3843 44.2032 63.6283 44.2205 63.8182C44.2464 63.6283 44.2809 63.3865 44.3241 63.093C44.3716 62.7951 44.4212 62.4972 44.473 62.1993C44.5291 61.8972 44.5788 61.6425 44.622 61.4352L45.5868 56.7535H47.9503ZM53.1566 66.2206L52.8004 64.3751H50.7542L50.398 66.2206H47.9568L50.262 56.7535H53.2343L55.5719 66.2206H53.1566ZM52.4507 62.4389L52.0687 60.3215C52.0255 60.084 51.9845 59.8531 51.9457 59.6286C51.9111 59.4041 51.8787 59.1904 51.8485 58.9875C51.8226 58.7803 51.7989 58.5882 51.7773 58.4112C51.76 58.5796 51.7363 58.7652 51.7061 58.9681C51.6802 59.171 51.6478 59.3847 51.6089 59.6092C51.5701 59.8293 51.5291 60.0581 51.4859 60.2956L51.0844 62.4389H52.4507ZM63.4913 66.2206H60.8623L58.3952 60.3344H58.3434C58.3693 60.6798 58.3887 61.0014 58.4017 61.2993C58.4189 61.5928 58.4297 61.8605 58.434 62.1022C58.4427 62.3396 58.447 62.549 58.447 62.7303V66.2206H56.3554V56.7535H58.965L61.4192 62.4778H61.471C61.4537 62.1583 61.4386 61.8605 61.4257 61.5842C61.4127 61.3079 61.4019 61.0532 61.3933 60.8201C61.3847 60.587 61.3804 60.3754 61.3804 60.1855V56.7535H63.4913V66.2206ZM67.3895 66.2206V56.7535H69.643V66.2206H67.3895ZM78.346 66.2206H75.7169L73.2498 60.3344H73.198C73.2239 60.6798 73.2433 61.0014 73.2563 61.2993C73.2735 61.5928 73.2843 61.8605 73.2887 62.1022C73.2973 62.3396 73.3016 62.549 73.3016 62.7303V66.2206H71.21V56.7535H73.8196L76.2738 62.4778H76.3256C76.3084 62.1583 76.2932 61.8605 76.2803 61.5842C76.2673 61.3079 76.2566 61.0532 76.2479 60.8201C76.2393 60.587 76.235 60.3754 76.235 60.1855V56.7535H78.346V66.2206ZM82.1665 66.2206H79.913V56.7535H84.4458V58.6638H82.1665V60.6906H84.2774V62.6008H82.1665V66.2206ZM92.6372 61.4741C92.6372 62.2684 92.5595 62.9699 92.4041 63.5786C92.253 64.183 92.0242 64.6924 91.7177 65.1068C91.4155 65.5169 91.04 65.8277 90.591 66.0393C90.1463 66.2465 89.6305 66.3501 89.0434 66.3501C88.4606 66.3501 87.9447 66.2443 87.4957 66.0328C87.0468 65.8213 86.669 65.5104 86.3625 65.1003C86.056 64.6859 85.8251 64.1743 85.6697 63.5657C85.5143 62.957 85.4366 62.2555 85.4366 61.4611C85.4366 60.4078 85.5725 59.5207 85.8445 58.7997C86.1208 58.0788 86.5266 57.5327 87.0619 57.1615C87.6015 56.7902 88.262 56.6046 89.0434 56.6046C89.829 56.6046 90.4874 56.788 91.0184 57.155C91.5537 57.5219 91.9573 58.068 92.2293 58.7933C92.5012 59.5142 92.6372 60.4078 92.6372 61.4741ZM87.7807 61.4741C87.7807 62.1173 87.8281 62.6548 87.9231 63.0865C88.0181 63.5182 88.1584 63.8419 88.344 64.0578C88.534 64.2693 88.7671 64.3751 89.0434 64.3751C89.3283 64.3751 89.5614 64.2715 89.7427 64.0643C89.9283 63.8571 90.0643 63.5398 90.1507 63.1124C90.2413 62.6807 90.2866 62.1346 90.2866 61.4741C90.2866 60.4726 90.183 59.7344 89.9758 59.2595C89.7729 58.7803 89.4621 58.5407 89.0434 58.5407C88.7671 58.5407 88.534 58.6508 88.344 58.871C88.1584 59.0868 88.0181 59.4128 87.9231 59.8488C87.8281 60.2805 87.7807 60.8222 87.7807 61.4741Z" fill="black"/>
</svg>
