<svg width="65" height="45" viewBox="0 0 65 45" fill="none" xmlns="http://www.w3.org/2000/svg">
<circle cx="47.3477" cy="17.4746" r="17" fill="#7A7A7A"/>
<path d="M39.0915 19.9608C39.0915 27.4268 33.0391 33.4792 25.5731 33.4792C18.1071 33.4792 12.0546 27.4268 12.0546 19.9608C12.0546 12.4948 18.1071 6.44238 25.5731 6.44238C33.0391 6.44238 39.0915 12.4948 39.0915 19.9608Z" fill="#F2F2F1"/>
<path d="M23.076 32.6182C23.076 38.9904 17.9103 44.1562 11.538 44.1562C5.16575 44.1562 0 38.9904 0 32.6182C0 26.2459 5.16575 21.0802 11.538 21.0802C17.9103 21.0802 23.076 26.2459 23.076 32.6182Z" fill="#F2F2F1"/>
<path d="M51.1461 24.5243C51.1461 29.9455 46.7514 34.3403 41.3302 34.3403C35.909 34.3403 31.5143 29.9455 31.5143 24.5243C31.5143 19.1032 35.909 14.7084 41.3302 14.7084C46.7514 14.7084 51.1461 19.1032 51.1461 24.5243Z" fill="#F2F2F1"/>
<path d="M59.7566 34.1681C59.7566 39.5892 55.3619 43.984 49.9407 43.984C44.5195 43.984 40.1247 39.5892 40.1247 34.1681C40.1247 28.7469 44.5195 24.3521 49.9407 24.3521C55.3619 24.3521 59.7566 28.7469 59.7566 34.1681Z" fill="#F2F2F1"/>
<path d="M10.445 28.5205H50.9832V44.0759H10.445V28.5205Z" fill="#F2F2F1"/>
</svg>
