<svg width="60" height="38" viewBox="0 0 60 38" fill="none" xmlns="http://www.w3.org/2000/svg">
<path d="M39.0915 13.5184C39.0915 20.9844 33.0391 27.0368 25.5731 27.0368C18.1071 27.0368 12.0546 20.9844 12.0546 13.5184C12.0546 6.0524 18.1071 0 25.5731 0C33.0391 0 39.0915 6.0524 39.0915 13.5184Z" fill="#F2F2F1"/>
<path d="M23.076 26.1758C23.076 32.5481 17.9103 37.7138 11.538 37.7138C5.16575 37.7138 0 32.5481 0 26.1758C0 19.8035 5.16575 14.6378 11.538 14.6378C17.9103 14.6378 23.076 19.8035 23.076 26.1758Z" fill="#F2F2F1"/>
<path d="M51.1461 18.082C51.1461 23.5031 46.7514 27.8979 41.3302 27.8979C35.909 27.8979 31.5143 23.5031 31.5143 18.082C31.5143 12.6608 35.909 8.26603 41.3302 8.26603C46.7514 8.26603 51.1461 12.6608 51.1461 18.082Z" fill="#F2F2F1"/>
<path d="M59.7566 27.7257C59.7566 33.1469 55.3619 37.5416 49.9407 37.5416C44.5195 37.5416 40.1247 33.1469 40.1247 27.7257C40.1247 22.3045 44.5195 17.9097 49.9407 17.9097C55.3619 17.9097 59.7566 22.3045 59.7566 27.7257Z" fill="#F2F2F1"/>
<path d="M10.445 22.0782H50.9832V37.6335H10.445V22.0782Z" fill="#F2F2F1"/>
</svg>
