<svg width="70" height="45" viewBox="0 0 70 45" fill="none" xmlns="http://www.w3.org/2000/svg">
<path d="M52.483 11.9632C52.483 18.176 47.4465 23.2125 41.2337 23.2125C35.0208 23.2125 29.9844 18.176 29.9844 11.9632C29.9844 5.75035 35.0208 0.713867 41.2337 0.713867C47.4465 0.713867 52.483 5.75035 52.483 11.9632Z" fill="#7A7A7A"/>
<path d="M39.1558 22.496C39.1558 27.7986 34.8571 32.0973 29.5544 32.0973C24.2518 32.0973 19.9531 27.7986 19.9531 22.496C19.9531 17.1933 24.2518 12.8946 29.5544 12.8946C34.8571 12.8946 39.1558 17.1933 39.1558 22.496Z" fill="#7A7A7A"/>
<path d="M62.5142 15.7607C62.5142 20.2719 58.8571 23.929 54.3459 23.929C49.8347 23.929 46.1776 20.2719 46.1776 15.7607C46.1776 11.2495 49.8347 7.59242 54.3459 7.59242C58.8571 7.59242 62.5142 11.2495 62.5142 15.7607Z" fill="#7A7A7A"/>
<path d="M69.6794 23.7857C69.6794 28.2969 66.0223 31.954 61.5111 31.954C56.9999 31.954 53.3428 28.2969 53.3428 23.7857C53.3428 19.2745 56.9999 15.6174 61.5111 15.6174C66.0223 15.6174 69.6794 19.2745 69.6794 23.7857Z" fill="#7A7A7A"/>
<path d="M28.6449 19.0861H62.3786V32.0305H28.6449V19.0861Z" fill="#7A7A7A"/>
<path d="M39.0915 20.4501C39.0915 27.9161 33.0391 33.9685 25.5731 33.9685C18.1071 33.9685 12.0546 27.9161 12.0546 20.4501C12.0546 12.984 18.1071 6.93164 25.5731 6.93164C33.0391 6.93164 39.0915 12.984 39.0915 20.4501Z" fill="#F2F2F1"/>
<path d="M23.076 33.1074C23.076 39.4797 17.9103 44.6455 11.538 44.6455C5.16575 44.6455 0 39.4797 0 33.1074C0 26.7352 5.16575 21.5694 11.538 21.5694C17.9103 21.5694 23.076 26.7352 23.076 33.1074Z" fill="#F2F2F1"/>
<path d="M51.1461 25.0136C51.1461 30.4348 46.7514 34.8295 41.3302 34.8295C35.909 34.8295 31.5143 30.4348 31.5143 25.0136C31.5143 19.5924 35.909 15.1977 41.3302 15.1977C46.7514 15.1977 51.1461 19.5924 51.1461 25.0136Z" fill="#F2F2F1"/>
<path d="M59.7566 34.6573C59.7566 40.0785 55.3619 44.4732 49.9407 44.4732C44.5195 44.4732 40.1247 40.0785 40.1247 34.6573C40.1247 29.2361 44.5195 24.8414 49.9407 24.8414C55.3619 24.8414 59.7566 29.2361 59.7566 34.6573Z" fill="#F2F2F1"/>
<path d="M10.445 29.0098H50.9832V44.5652H10.445V29.0098Z" fill="#F2F2F1"/>
</svg>
