<svg width="56" height="52" viewBox="0 0 56 52" fill="none" xmlns="http://www.w3.org/2000/svg">
<path d="M41.754 9.59485C41.754 14.5374 37.7472 18.5442 32.8046 18.5442C27.8621 18.5442 23.8553 14.5374 23.8553 9.59485C23.8553 4.65226 27.8621 0.645508 32.8046 0.645508C37.7472 0.645508 41.754 4.65226 41.754 9.59485Z" fill="#7A7A7A"/>
<path d="M31.1516 17.9742C31.1516 22.1927 27.7318 25.6125 23.5133 25.6125C19.2948 25.6125 15.875 22.1927 15.875 17.9742C15.875 13.7557 19.2948 10.3359 23.5133 10.3359C27.7318 10.3359 31.1516 13.7557 31.1516 17.9742Z" fill="#7A7A7A"/>
<path d="M49.7343 12.616C49.7343 16.2048 46.8249 19.1142 43.236 19.1142C39.6471 19.1142 36.7378 16.2048 36.7378 12.616C36.7378 9.02708 39.6471 6.11771 43.236 6.11771C46.8249 6.11771 49.7343 9.02708 49.7343 12.616Z" fill="#7A7A7A"/>
<path d="M55.4345 19.0002C55.4345 22.5891 52.5251 25.4985 48.9363 25.4985C45.3474 25.4985 42.438 22.5891 42.438 19.0002C42.438 15.4113 45.3474 12.502 48.9363 12.502C52.5251 12.502 55.4345 15.4113 55.4345 19.0002Z" fill="#7A7A7A"/>
<path d="M22.7897 15.2615H49.6264V25.5593H22.7897V15.2615Z" fill="#7A7A7A"/>
<path d="M31.0991 16.3468C31.0991 22.2864 26.2841 27.1013 20.3446 27.1013C14.405 27.1013 9.59003 22.2864 9.59003 16.3468C9.59003 10.4073 14.405 5.59229 20.3446 5.59229C26.2841 5.59229 31.0991 10.4073 31.0991 16.3468Z" fill="#F2F2F1"/>
<path d="M18.3581 26.4163C18.3581 31.4858 14.2485 35.5954 9.17903 35.5954C4.10959 35.5954 0 31.4858 0 26.4163C0 21.3469 4.10959 17.2373 9.17903 17.2373C14.2485 17.2373 18.3581 21.3469 18.3581 26.4163Z" fill="#F2F2F1"/>
<path d="M40.6891 19.9773C40.6891 24.2901 37.1929 27.7863 32.8801 27.7863C28.5673 27.7863 25.071 24.2901 25.071 19.9773C25.071 15.6645 28.5673 12.1683 32.8801 12.1683C37.1929 12.1683 40.6891 15.6645 40.6891 19.9773Z" fill="#F2F2F1"/>
<path d="M47.5391 27.6493C47.5391 31.9621 44.0429 35.4584 39.7301 35.4584C35.4173 35.4584 31.9211 31.9621 31.9211 27.6493C31.9211 23.3365 35.4173 19.8403 39.7301 19.8403C44.0429 19.8403 47.5391 23.3365 47.5391 27.6493Z" fill="#F2F2F1"/>
<path d="M8.30951 23.1565H40.5595V35.5315H8.30951V23.1565Z" fill="#F2F2F1"/>
<rect x="14.5391" y="39.4146" width="3.5" height="6.93743" rx="1.75" transform="rotate(16.6352 14.5391 39.4146)" fill="#7A7A7A"/>
<rect x="16.9883" y="32.4434" width="3.5" height="5.66819" rx="1.75" transform="rotate(16.6352 16.9883 32.4434)" fill="#7A7A7A"/>
<rect x="22.793" y="38.1973" width="3.5" height="6.51204" rx="1.75" transform="rotate(16.6352 22.793 38.1973)" fill="#7A7A7A"/>
<rect x="20.1055" y="45.7598" width="3.5" height="3.60876" rx="1.75" transform="rotate(16.6352 20.1055 45.7598)" fill="#7A7A7A"/>
<rect x="28.9805" y="45.1348" width="3.5" height="6.06255" rx="1.75" transform="rotate(16.6352 28.9805 45.1348)" fill="#7A7A7A"/>
<rect x="31.668" y="37.1973" width="3.5" height="4.07067" rx="1.75" transform="rotate(16.6352 31.668 37.1973)" fill="#7A7A7A"/>
</svg>
