<svg width="55" height="52" viewBox="0 0 55 52" fill="none" xmlns="http://www.w3.org/2000/svg">
<circle cx="39.956" cy="14.4755" r="14.3193" fill="#7A7A7A"/>
<path d="M31.1694 15.8258C31.1694 21.7654 26.3544 26.5803 20.4149 26.5803C14.4753 26.5803 9.66034 21.7654 9.66034 15.8258C9.66034 9.88626 14.4753 5.07129 20.4149 5.07129C26.3544 5.07129 31.1694 9.88626 31.1694 15.8258Z" fill="#F2F2F1"/>
<path d="M18.4284 25.8953C18.4284 30.9648 14.3188 35.0744 9.24934 35.0744C4.1799 35.0744 0.0703125 30.9648 0.0703125 25.8953C0.0703125 20.8259 4.1799 16.7163 9.24934 16.7163C14.3188 16.7163 18.4284 20.8259 18.4284 25.8953Z" fill="#F2F2F1"/>
<path d="M40.7594 19.4563C40.7594 23.7691 37.2632 27.2653 32.9504 27.2653C28.6376 27.2653 25.1414 23.7691 25.1414 19.4563C25.1414 15.1435 28.6376 11.6473 32.9504 11.6473C37.2632 11.6473 40.7594 15.1435 40.7594 19.4563Z" fill="#F2F2F1"/>
<path d="M47.6094 27.1283C47.6094 31.4411 44.1132 34.9374 39.8004 34.9374C35.4876 34.9374 31.9914 31.4411 31.9914 27.1283C31.9914 22.8155 35.4876 19.3193 39.8004 19.3193C44.1132 19.3193 47.6094 22.8155 47.6094 27.1283Z" fill="#F2F2F1"/>
<path d="M8.37982 22.6355H40.6298V35.0105H8.37982V22.6355Z" fill="#F2F2F1"/>
<rect x="14.6094" y="38.8936" width="3.5" height="6.93743" rx="1.75" transform="rotate(16.6352 14.6094 38.8936)" fill="#7A7A7A"/>
<rect x="17.0586" y="31.9224" width="3.5" height="5.66819" rx="1.75" transform="rotate(16.6352 17.0586 31.9224)" fill="#7A7A7A"/>
<rect x="22.8633" y="37.6763" width="3.5" height="6.51204" rx="1.75" transform="rotate(16.6352 22.8633 37.6763)" fill="#7A7A7A"/>
<rect x="20.1758" y="45.2388" width="3.5" height="3.60876" rx="1.75" transform="rotate(16.6352 20.1758 45.2388)" fill="#7A7A7A"/>
<rect x="29.0508" y="44.6138" width="3.5" height="6.06255" rx="1.75" transform="rotate(16.6352 29.0508 44.6138)" fill="#7A7A7A"/>
<rect x="31.7383" y="36.6763" width="3.5" height="4.07067" rx="1.75" transform="rotate(16.6352 31.7383 36.6763)" fill="#7A7A7A"/>
</svg>
