<svg width="67" height="55" viewBox="0 0 67 55" fill="none" xmlns="http://www.w3.org/2000/svg">
<path d="M50.0878 11.6811C50.0878 17.6103 45.2812 22.4168 39.352 22.4168C33.4228 22.4168 28.6163 17.6103 28.6163 11.6811C28.6163 5.75187 33.4228 0.945312 39.352 0.945312C45.2812 0.945312 50.0878 5.75187 50.0878 11.6811Z" fill="#7A7A7A"/>
<path d="M37.369 21.733C37.369 26.7936 33.2666 30.896 28.206 30.896C23.1454 30.896 19.043 26.7936 19.043 21.733C19.043 16.6724 23.1454 12.57 28.206 12.57C33.2666 12.57 37.369 16.6724 37.369 21.733Z" fill="#7A7A7A"/>
<path d="M59.661 15.3052C59.661 19.6105 56.1709 23.1006 51.8656 23.1006C47.5604 23.1006 44.0702 19.6105 44.0702 15.3052C44.0702 11 47.5604 7.50984 51.8656 7.50984C56.1709 7.50984 59.661 11 59.661 15.3052Z" fill="#7A7A7A"/>
<path d="M66.4991 22.9639C66.4991 27.2691 63.009 30.7592 58.7037 30.7592C54.3984 30.7592 50.9083 27.2691 50.9083 22.9639C50.9083 18.6586 54.3984 15.1685 58.7037 15.1685C63.009 15.1685 66.4991 18.6586 66.4991 22.9639Z" fill="#7A7A7A"/>
<path d="M27.338 18.4788H59.5317V30.8322H27.338V18.4788Z" fill="#7A7A7A"/>
<path d="M37.3069 19.7807C37.3069 26.9058 31.5308 32.6819 24.4056 32.6819C17.2804 32.6819 11.5043 26.9058 11.5043 19.7807C11.5043 12.6555 17.2804 6.87939 24.4056 6.87939C31.5308 6.87939 37.3069 12.6555 37.3069 19.7807Z" fill="#F2F2F1"/>
<path d="M22.0226 31.8602C22.0226 37.9416 17.0926 42.8715 11.0113 42.8715C4.92992 42.8715 0 37.9416 0 31.8602C0 25.7788 4.92992 20.8489 11.0113 20.8489C17.0926 20.8489 22.0226 25.7788 22.0226 31.8602Z" fill="#F2F2F1"/>
<path d="M48.8112 24.1359C48.8112 29.3096 44.6171 33.5037 39.4434 33.5037C34.2697 33.5037 30.0756 29.3096 30.0756 24.1359C30.0756 18.9622 34.2697 14.7681 39.4434 14.7681C44.6171 14.7681 48.8112 18.9622 48.8112 24.1359Z" fill="#F2F2F1"/>
<path d="M57.0286 33.3393C57.0286 38.513 52.8345 42.7071 47.6608 42.7071C42.4871 42.7071 38.293 38.513 38.293 33.3393C38.293 28.1656 42.4871 23.9715 47.6608 23.9715C52.8345 23.9715 57.0286 28.1656 57.0286 33.3393Z" fill="#F2F2F1"/>
<path d="M9.9682 27.9496H48.6557V42.7948H9.9682V27.9496Z" fill="#F2F2F1"/>
<path d="M27.5 32.0649H21.125L15.75 44.3149H19.5L16.25 54.4399L28.25 38.6899H23.375L27.5 32.0649Z" fill="#FFE15A"/>
</svg>
