<svg width="39" height="42" viewBox="0 0 39 42" fill="none" xmlns="http://www.w3.org/2000/svg">
<path fill-rule="evenodd" clip-rule="evenodd" d="M24.6407 20.6041C24.6407 23.6995 22.1314 26.2088 19.036 26.2088C15.9407 26.2088 13.4314 23.6995 13.4314 20.6041C13.4314 17.5088 15.9407 14.9995 19.036 14.9995C22.1314 14.9995 24.6407 17.5088 24.6407 20.6041ZM19.036 23.2088C20.4745 23.2088 21.6407 22.0427 21.6407 20.6041C21.6407 19.1656 20.4745 17.9995 19.036 17.9995C17.5975 17.9995 16.4314 19.1656 16.4314 20.6041C16.4314 22.0427 17.5975 23.2088 19.036 23.2088Z" fill="#7A7A7A"/>
<path d="M17.3097 1.7672C17.3097 0.896106 18.0159 0.189941 18.887 0.189941C19.7581 0.189941 20.4642 0.896106 20.4642 1.7672V15.7299C20.4642 16.601 19.7581 17.3071 18.887 17.3071C18.0159 17.3071 17.3097 16.601 17.3097 15.7299V1.7672Z" fill="#7A7A7A"/>
<path d="M24.3314 3.22207C24.9726 2.63248 25.9704 2.67437 26.56 3.31563C27.1496 3.95688 27.1077 4.95467 26.4664 5.54425L20.7426 10.8069C20.1013 11.3965 19.1035 11.3546 18.514 10.7133C17.9244 10.0721 17.9663 9.07427 18.6075 8.48469L24.3314 3.22207Z" fill="#7A7A7A"/>
<path d="M13.7426 3.22207C13.1014 2.63248 12.1036 2.67437 11.514 3.31563C10.9244 3.95688 10.9663 4.95467 11.6075 5.54425L17.3314 10.8069C17.9726 11.3965 18.9704 11.3546 19.56 10.7133C20.1496 10.0721 20.1077 9.07427 19.4665 8.48469L13.7426 3.22207Z" fill="#7A7A7A"/>
<path d="M20.5057 39.6215C20.5057 40.4926 19.7995 41.1988 18.9284 41.1988C18.0573 41.1988 17.3512 40.4926 17.3512 39.6215V25.6589C17.3512 24.7878 18.0573 24.0816 18.9284 24.0816C19.7995 24.0816 20.5057 24.7878 20.5057 25.6589V39.6215Z" fill="#7A7A7A"/>
<path d="M13.484 38.1667C12.8428 38.7562 11.845 38.7144 11.2554 38.0731C10.6658 37.4319 10.7077 36.4341 11.349 35.8445L17.0728 30.5819C17.7141 29.9923 18.7119 30.0342 19.3014 30.6754C19.891 31.3167 19.8491 32.3145 19.2079 32.904L13.484 38.1667Z" fill="#7A7A7A"/>
<path d="M24.0728 38.1667C24.7141 38.7562 25.7119 38.7144 26.3014 38.0731C26.891 37.4319 26.8491 36.4341 26.2079 35.8445L20.484 30.5819C19.8428 29.9923 18.845 30.0342 18.2554 30.6754C17.6658 31.3167 17.7077 32.3145 18.349 32.904L24.0728 38.1667Z" fill="#7A7A7A"/>
<path d="M36.4377 29.0875C37.1796 29.544 37.4109 30.5155 36.9544 31.2574C36.4979 31.9993 35.5264 32.2306 34.7845 31.7741L22.8927 24.457C22.1508 24.0005 21.9195 23.029 22.3759 22.2871C22.8324 21.5452 23.8039 21.3138 24.5459 21.7703L36.4377 29.0875Z" fill="#7A7A7A"/>
<path d="M31.5189 34.3053C31.685 35.1604 31.1264 35.9883 30.2713 36.1544C29.4162 36.3205 28.5883 35.7619 28.4222 34.9068L26.9397 27.274C26.7736 26.4189 27.3322 25.591 28.1873 25.4249C29.0424 25.2588 29.8703 25.8174 30.0364 26.6725L31.5189 34.3053Z" fill="#7A7A7A"/>
<path d="M37.0679 25.287C37.9061 25.0498 38.3933 24.1781 38.1562 23.3399C37.919 22.5017 37.0472 22.0145 36.209 22.2516L28.7273 24.3687C27.8892 24.6059 27.4019 25.4776 27.6391 26.3158C27.8763 27.154 28.748 27.6412 29.5862 27.404L37.0679 25.287Z" fill="#7A7A7A"/>
<path d="M1.62953 12.4939C0.875136 12.0584 0.616662 11.0938 1.05221 10.3394C1.48776 9.58496 2.4524 9.32649 3.20679 9.76204L15.2988 16.7434C16.0532 17.1789 16.3117 18.1436 15.8761 18.8979C15.4406 19.6523 14.4759 19.9108 13.7215 19.4753L1.62953 12.4939Z" fill="#7A7A7A"/>
<path d="M6.4003 7.14044C6.21033 6.29031 6.7455 5.44714 7.59564 5.25717C8.44577 5.06721 9.28893 5.60238 9.4789 6.45251L11.1745 14.0408C11.3645 14.8909 10.8293 15.7341 9.9792 15.9241C9.12907 16.114 8.28591 15.5789 8.09594 14.7287L6.4003 7.14044Z" fill="#7A7A7A"/>
<path d="M1.10592 16.3106C0.274698 16.5711 -0.187922 17.4562 0.0726291 18.2874C0.33318 19.1186 1.21823 19.5812 2.04945 19.3207L9.46894 16.995C10.3002 16.7345 10.7628 15.8494 10.5022 15.0182C10.2417 14.187 9.35662 13.7243 8.5254 13.9849L1.10592 16.3106Z" fill="#7A7A7A"/>
<path d="M34.7909 9.06801C35.515 8.58368 36.4946 8.77801 36.9789 9.50205C37.4632 10.2261 37.2689 11.2057 36.5449 11.69L24.9393 19.4532C24.2153 19.9376 23.2357 19.7432 22.7514 19.0192C22.2671 18.2952 22.4614 17.3156 23.1854 16.8313L34.7909 9.06801Z" fill="#7A7A7A"/>
<path d="M37.4857 15.7132C38.3323 15.9184 38.8523 16.771 38.6471 17.6176C38.4419 18.4642 37.5893 18.9842 36.7427 18.779L29.186 16.9474C28.3394 16.7422 27.8195 15.8896 28.0247 15.043C28.2299 14.1964 29.0825 13.6765 29.9291 13.8817L37.4857 15.7132Z" fill="#7A7A7A"/>
<path d="M31.5984 6.912C31.7319 6.05119 31.1423 5.24514 30.2815 5.11162C29.4207 4.97811 28.6146 5.5677 28.4811 6.42851L27.2894 14.1121C27.1559 14.9729 27.7455 15.7789 28.6063 15.9125C29.4671 16.046 30.2731 15.4564 30.4066 14.5956L31.5984 6.912Z" fill="#7A7A7A"/>
<path d="M3.14587 31.5605C2.37773 31.9713 1.422 31.6816 1.01117 30.9135C0.600352 30.1454 0.890014 29.1896 1.65815 28.7788L13.9705 22.1938C14.7386 21.783 15.6944 22.0726 16.1052 22.8408C16.516 23.6089 16.2264 24.5647 15.4582 24.9755L3.14587 31.5605Z" fill="#7A7A7A"/>
<path d="M1.11727 24.6826C0.29495 24.3952 -0.138687 23.4956 0.148719 22.6733C0.436124 21.8509 1.33573 21.4173 2.15805 21.7047L9.49811 24.2701C10.3204 24.5575 10.7541 25.4571 10.4667 26.2794C10.1793 27.1018 9.27964 27.5354 8.45732 27.248L1.11727 24.6826Z" fill="#7A7A7A"/>
<path d="M6.11108 34.0198C5.89361 34.8634 6.40112 35.7235 7.24463 35.9409C8.08815 36.1584 8.94825 35.6509 9.16572 34.8074L11.1069 27.2781C11.3243 26.4346 10.8168 25.5745 9.97332 25.357C9.12981 25.1396 8.26971 25.6471 8.05224 26.4906L6.11108 34.0198Z" fill="#7A7A7A"/>
</svg>
