<svg width="250" height="151" viewBox="0 0 250 151" fill="none" xmlns="http://www.w3.org/2000/svg">
<circle cx="124" cy="77" r="74" fill="#FFE15A"/>
<path d="M1.33152 55H108.477C117.902 55 126.615 55 124.745 44.3969C119.135 12.5861 99.3142 7.19156 86.5988 12.5861C69.0959 -8.39747 51.2573 3.84296 44.5258 12.5861C28.8186 4.99632 21.5263 20.9574 19.8436 29.8866C1.89249 24.9756 0.0225829 44.5826 1.33152 55Z" fill="#D3D3D3" stroke="#ECF0F2" stroke-width="2"/>
<path d="M248.668 123H141.523C132.098 123 123.385 123 125.255 109.709C128.235 88.5299 134.5 77.8753 153 80.3821C170.503 54.0799 192.5 64.7136 201 75.9951C213 70.9812 228.474 80.3288 230.156 91.5213C248.108 85.3655 249.977 109.942 248.668 123Z" fill="#D3D3D3" stroke="#ECF0F2" stroke-width="2"/>
</svg>
