<svg width="225" height="151" viewBox="0 0 225 151" fill="none" xmlns="http://www.w3.org/2000/svg">
<path d="M2.11651 62.7174H115.563C130.149 44.9501 113.537 29.0673 103.408 23.3468C96.4496 -6.32613 69.9817 0.128249 59.3461 11.7374C33.4155 -0.376567 25.5823 22.8421 24.9071 35.9657C4.64879 32.7353 1.27242 52.4542 2.11651 62.7174Z" fill="#D3D3D3" stroke="#ECF0F2" stroke-width="2.47"/>
<path d="M223.366 119.696H28.8861C3.88161 89.1342 32.359 61.8145 49.7232 51.9748C61.6517 0.934688 107.025 12.0368 125.258 32.0055C169.71 11.1684 183.138 51.1066 184.296 73.6803C219.025 68.1237 224.813 102.042 223.366 119.696Z" fill="#D3D3D3" stroke="#ECF0F2" stroke-width="2.47"/>
<path d="M220.255 149H106.808C92.2223 131.232 108.834 115.35 118.963 109.629C125.921 79.9561 152.389 86.4105 163.025 98.0196C188.956 85.9057 196.789 109.124 197.464 122.248C217.722 119.018 221.099 138.736 220.255 149Z" fill="#D3D3D3" stroke="#ECF0F2" stroke-width="2.47"/>
</svg>
