<svg width="40" height="40" viewBox="0 0 40 40" fill="none" xmlns="http://www.w3.org/2000/svg">
<path d="M36.8551 9.01334C36.8592 8.74393 36.8289 8.4751 36.7651 8.21334C36.7484 8.14481 36.7056 8.08553 36.6458 8.04815C36.586 8.01078 36.514 7.99828 36.4451 8.01334C36.3771 8.03423 36.3191 8.0794 36.2822 8.14025C36.2453 8.20109 36.2322 8.27337 36.2451 8.34334C36.3621 9.15769 36.2252 9.98832 35.853 10.722C35.4807 11.4557 34.8914 12.0568 34.1651 12.4433C33.6422 12.7194 33.054 12.8476 32.4637 12.8141C31.8734 12.7806 31.3034 12.5867 30.8151 12.2533C31.4427 12.2182 32.0467 12.0029 32.5551 11.6333C32.8844 11.4292 33.1645 11.1548 33.3754 10.8298C33.5863 10.5048 33.7228 10.1372 33.7751 9.75334C33.8398 8.13467 33.2815 6.55278 32.2151 5.33334C28.3851 0.593338 24.2151 0.593338 21.4451 1.42334C21.4104 1.43113 21.3777 1.44624 21.3493 1.46766C21.3209 1.48908 21.2974 1.51632 21.2803 1.54756C21.2633 1.5788 21.2531 1.61332 21.2505 1.6488C21.2479 1.68429 21.2528 1.71993 21.2651 1.75334C21.2859 1.82034 21.332 1.8766 21.3936 1.91019C21.4552 1.94379 21.5275 1.95209 21.5951 1.93334C24.2351 1.15334 28.1551 1.16334 31.7951 5.67334C32.7686 6.77433 33.2869 8.2043 33.2451 9.67334C33.199 9.98419 33.0857 10.2812 32.913 10.5438C32.7402 10.8063 32.5123 11.028 32.2451 11.1933C31.9616 11.4288 31.6233 11.5889 31.2614 11.6588C30.8996 11.7287 30.5259 11.7062 30.1751 11.5933C30.1215 11.5734 30.063 11.5704 30.0076 11.5847C29.9521 11.599 29.9024 11.6299 29.8651 11.6733C29.8333 11.7188 29.8162 11.7729 29.8162 11.8283C29.8162 11.8838 29.8333 11.9379 29.8651 11.9833C30.3908 12.6546 31.1376 13.1176 31.9727 13.2897C32.8078 13.4619 33.6768 13.332 34.4251 12.9233C35.1334 12.537 35.7295 11.9738 36.1554 11.2886C36.5813 10.6033 36.8223 9.81946 36.8551 9.01334Z" fill="black"/>
<path d="M31.6244 5.64264C31.6314 5.277 31.5808 4.91253 31.4743 4.56264C31.4515 4.49521 31.403 4.43951 31.3393 4.40767C31.2756 4.37583 31.202 4.37043 31.1344 4.39264C31.1005 4.40159 31.0689 4.41753 31.0416 4.43944C31.0144 4.46135 30.992 4.48875 30.976 4.51985C30.96 4.55096 30.9506 4.58508 30.9486 4.62001C30.9466 4.65495 30.952 4.68991 30.9643 4.72264C31.1052 5.30231 31.1211 5.90535 31.0107 6.4916C30.9004 7.07786 30.6663 7.63388 30.3243 8.12264C29.908 8.64983 29.3549 9.05264 28.7254 9.28716C28.0959 9.52168 27.4142 9.57892 26.7544 9.45264C26.314 9.34362 25.9129 9.11348 25.5965 8.7883C25.2802 8.46311 25.0612 8.05586 24.9643 7.61264C24.877 7.30539 24.877 6.9799 24.9643 6.67264C25.0028 6.89996 25.0992 7.1135 25.2443 7.29264C25.5428 7.62744 25.9357 7.86397 26.3713 7.97107C26.8069 8.07817 27.2646 8.05083 27.6843 7.89264C28.1091 7.72449 28.4857 7.45389 28.7805 7.10494C29.0754 6.75599 29.2794 6.33952 29.3744 5.89264C29.7744 4.05264 28.7343 2.33264 26.6443 1.40264C26.579 1.37457 26.5055 1.37239 26.4386 1.39653C26.3718 1.42067 26.3166 1.46933 26.2843 1.53264C26.2694 1.56541 26.2613 1.60082 26.2603 1.6368C26.2593 1.67277 26.2655 1.70858 26.2785 1.74212C26.2916 1.77566 26.3112 1.80625 26.3363 1.8321C26.3613 1.85795 26.3912 1.87854 26.4243 1.89264C28.2643 2.71264 29.1943 4.19264 28.8443 5.77264C28.7744 6.13565 28.6153 6.47559 28.3814 6.76187C28.1475 7.04814 27.8461 7.27177 27.5044 7.41264C27.1885 7.54061 26.8406 7.567 26.5091 7.48815C26.1775 7.40929 25.8787 7.22911 25.6543 6.97264C25.5461 6.81602 25.4817 6.63336 25.4676 6.44351C25.4536 6.25367 25.4904 6.0635 25.5743 5.89264C25.6312 5.85407 25.6705 5.79455 25.6836 5.72709C25.6967 5.65963 25.6826 5.58972 25.6443 5.53264C25.6072 5.47448 25.5492 5.43274 25.4823 5.416C25.4153 5.39926 25.3445 5.40879 25.2843 5.44264L25.2043 5.50264C24.8595 5.75869 24.5972 6.11008 24.4497 6.51345C24.3022 6.91683 24.276 7.35456 24.3744 7.77264C24.4943 8.31521 24.7625 8.81381 25.1492 9.21286C25.5359 9.6119 26.0258 9.89571 26.5644 10.0326C27.3272 10.1762 28.1147 10.1075 28.8412 9.83419C29.5677 9.56087 30.2053 9.09337 30.6843 8.48264C31.2903 7.65931 31.6195 6.66493 31.6244 5.64264Z" fill="black"/>
<path d="M1.28459 27.6228C2.13459 31.3228 4.96459 34.7628 8.40459 35.8528C9.8589 36.3454 11.4267 36.3956 12.9095 35.9968C14.3923 35.5981 15.7235 34.7684 16.7346 33.6128C16.4839 34.8578 15.8476 35.9924 14.9161 36.8557C13.9846 37.719 12.8051 38.2672 11.5446 38.4228C9.69031 38.8538 7.74368 38.6229 6.04167 37.77C4.33966 36.9172 2.98938 35.4961 2.22459 33.7528C1.48767 31.7972 1.16749 29.7093 1.28459 27.6228ZM28.3546 0.522772C30.4378 0.407073 32.5222 0.727227 34.4746 1.46277C36.2183 2.23286 37.6387 3.58705 38.4912 5.29197C39.3437 6.9969 39.5747 8.94577 39.1446 10.8028C38.9944 12.0642 38.4478 13.2454 37.5834 14.1763C36.719 15.1072 35.5814 15.7397 34.3346 15.9828C35.4902 14.9717 36.3199 13.6405 36.7187 12.1577C37.1174 10.6749 37.0672 9.10709 36.5746 7.65277C35.9034 5.87573 34.8007 4.29359 33.3657 3.04891C31.9307 1.80423 30.2087 0.936107 28.3546 0.522772ZM39.8546 9.01277C39.8787 7.31659 39.3995 5.65132 38.4775 4.2274C37.5555 2.80348 36.2322 1.68481 34.6746 1.01277C30.8046 -0.497228 26.1346 -0.317227 21.1846 1.54277C16.8622 3.18603 12.9389 5.73003 9.67516 9.00586C6.4114 12.2817 3.88191 16.2144 2.25462 20.5428C1.72998 21.9315 1.32842 23.3637 1.05461 24.8228C0.414635 27.8918 0.646713 31.0788 1.72459 34.0228C2.53743 35.8807 3.97312 37.3967 5.78404 38.3095C7.59496 39.2223 9.66759 39.4745 11.6446 39.0228C14.4046 38.5028 17.3446 36.5528 17.3446 32.6328C17.3444 32.5735 17.3248 32.5159 17.2886 32.4689C17.2525 32.4219 17.2018 32.3881 17.1446 32.3728C17.0861 32.3576 17.0242 32.3633 16.9695 32.3889C16.9147 32.4144 16.8705 32.4582 16.8446 32.5128C15.5146 35.1328 11.8446 36.4328 8.56462 35.4128C4.56462 34.1328 1.37462 29.4128 1.56462 25.1028C2.80883 19.1509 5.76023 13.6905 10.058 9.38918C14.3558 5.08783 19.8137 2.1319 25.7646 0.882773C27.9918 0.853697 30.1742 1.50953 32.0164 2.76153C33.8586 4.01353 35.2718 5.80125 36.0646 7.88277C37.0646 11.1228 35.7946 14.8828 33.1746 16.1728C33.1201 16.1987 33.0763 16.2429 33.0507 16.2976C33.0252 16.3524 33.0194 16.4143 33.0346 16.4728C33.0484 16.5309 33.0817 16.5825 33.1291 16.6189C33.1764 16.6554 33.2349 16.6744 33.2946 16.6728C37.2046 16.6728 39.1546 13.7328 39.6746 10.9728C39.7959 10.3265 39.8562 9.6703 39.8546 9.01277Z" fill="black"/>
<path d="M14.0943 31.8827C14.119 31.3396 14.0076 30.799 13.7701 30.3099C13.5325 29.8209 13.1765 29.399 12.7343 29.0827C12.6895 29.0495 12.6351 29.0315 12.5793 29.0315C12.5234 29.0315 12.4691 29.0495 12.4243 29.0827C12.3805 29.1175 12.349 29.1654 12.3346 29.2195C12.3202 29.2735 12.3236 29.3308 12.3443 29.3827C12.4548 29.7361 12.4752 30.1116 12.4036 30.4748C12.332 30.8381 12.1707 31.1777 11.9343 31.4627C11.7705 31.7292 11.5505 31.9568 11.2897 32.1295C11.0289 32.3022 10.7336 32.4159 10.4243 32.4627C8.95525 32.5046 7.52528 31.9862 6.42429 31.0127C3.94429 29.0127 1.27431 25.5827 2.69431 20.7927C2.71307 20.7251 2.70471 20.6529 2.67111 20.5913C2.63752 20.5297 2.58125 20.4836 2.51425 20.4627C2.48012 20.452 2.44419 20.4481 2.40854 20.4513C2.37289 20.4545 2.33825 20.4648 2.30661 20.4816C2.27497 20.4983 2.24699 20.5212 2.22428 20.5489C2.20156 20.5765 2.18456 20.6084 2.17429 20.6427C1.35429 23.4427 1.35426 27.5927 6.08426 31.4227C7.30479 32.4883 8.88507 33.0496 10.5043 32.9927C10.8878 32.9353 11.2543 32.7957 11.5788 32.5834C11.9033 32.3711 12.1781 32.0912 12.3843 31.7627C12.7529 31.2546 12.9649 30.6498 12.9943 30.0227C13.3291 30.5121 13.5246 31.0832 13.5598 31.675C13.595 32.2669 13.4687 32.8572 13.1943 33.3827C12.8078 34.109 12.2066 34.6984 11.4729 35.0706C10.7392 35.4428 9.90862 35.5798 9.09427 35.4627C9.05946 35.4538 9.0232 35.4519 8.98764 35.4572C8.95209 35.4624 8.91798 35.4747 8.88724 35.4934C8.8565 35.512 8.8298 35.5366 8.80869 35.5657C8.78757 35.5947 8.77244 35.6277 8.76425 35.6627C8.7492 35.7316 8.76173 35.8037 8.79911 35.8635C8.83648 35.9233 8.89574 35.9661 8.96427 35.9827C9.89511 36.1328 10.8496 35.9867 11.6929 35.565C12.5362 35.1434 13.2258 34.4675 13.6643 33.6327C13.9462 33.0925 14.0937 32.4922 14.0943 31.8827Z" fill="black"/>
<path d="M10.8535 26.6827C10.8544 26.4201 10.8241 26.1583 10.7635 25.9027C10.6289 25.3636 10.3474 24.8725 9.95012 24.4841C9.55284 24.0956 9.05545 23.8251 8.51347 23.7027C8.09442 23.6041 7.65567 23.6312 7.25194 23.7806C6.8482 23.93 6.49744 24.1951 6.24351 24.5427L6.18351 24.6127C6.14967 24.6729 6.1401 24.7437 6.15684 24.8107C6.17358 24.8776 6.21531 24.9356 6.27348 24.9727C6.33011 25.0096 6.39854 25.0239 6.46519 25.0128C6.53184 25.0017 6.59191 24.966 6.63353 24.9127C6.80387 24.8336 6.99163 24.7994 7.17894 24.8134C7.36624 24.8274 7.54679 24.8892 7.70347 24.9927C7.95955 25.2196 8.1393 25.5201 8.21806 25.8531C8.29682 26.186 8.27075 26.5352 8.14348 26.8527C7.99767 27.1853 7.77149 27.4765 7.48521 27.6999C7.19893 27.9233 6.86158 28.0721 6.50352 28.1327C4.92352 28.4827 3.43351 27.5527 2.61351 25.7127C2.60045 25.68 2.58087 25.6502 2.55595 25.6253C2.53103 25.6003 2.50129 25.5807 2.46855 25.5676C2.43581 25.5545 2.40077 25.5482 2.36552 25.5491C2.33027 25.55 2.29552 25.558 2.26347 25.5727C2.1991 25.6013 2.14845 25.6539 2.1223 25.7193C2.09614 25.7847 2.0966 25.8577 2.12352 25.9227C3.05352 28.0227 4.77351 29.0627 6.61351 28.6627C7.05936 28.5654 7.47465 28.3605 7.82322 28.0659C8.1718 27.7714 8.4431 27.3961 8.61351 26.9727C8.7717 26.553 8.79904 26.0952 8.69194 25.6597C8.58483 25.2241 8.34827 24.8312 8.01347 24.5327C7.83724 24.3812 7.62279 24.2808 7.39348 24.2427C7.70207 24.1657 8.02488 24.1657 8.33348 24.2427C8.77572 24.3417 9.18186 24.5615 9.5067 24.8775C9.83153 25.1935 10.0624 25.5934 10.1735 26.0327C10.2956 26.69 10.2373 27.3681 10.0049 27.995C9.7725 28.6218 9.37462 29.174 8.8535 29.5927C8.36653 29.9345 7.81219 30.1684 7.22758 30.2788C6.64297 30.3892 6.04154 30.3735 5.46348 30.2327C5.39582 30.2131 5.32326 30.2197 5.26024 30.2512C5.19722 30.2827 5.1484 30.3368 5.12352 30.4027C5.10131 30.4704 5.10669 30.5441 5.13853 30.6077C5.17037 30.6714 5.22606 30.7199 5.2935 30.7427C5.95203 30.9124 6.63972 30.9358 7.30827 30.8114C7.97682 30.6871 8.61003 30.4179 9.1635 30.0227C9.67872 29.6294 10.0984 29.1247 10.391 28.5463C10.6837 27.9679 10.8418 27.3308 10.8535 26.6827Z" fill="black"/>
<path d="M11.7751 11.0331L23.8551 13.5331C22.7177 15.9978 22.1242 18.6786 22.1151 21.3931C19.4094 21.3951 16.737 21.989 14.2851 23.1331L11.7751 11.0331ZM22.6951 21.9531C23.3267 21.9986 23.9527 22.1024 24.5651 22.2631C26.1251 22.6531 29.3151 24.4031 29.8451 26.3331C29.9133 26.7141 29.8887 27.1059 29.7735 27.4754C29.6583 27.8449 29.4557 28.1812 29.183 28.4558C28.9103 28.7305 28.5755 28.9354 28.2068 29.0533C27.8382 29.1712 27.4466 29.1986 27.0651 29.1331C25.1351 28.6031 23.3851 25.4131 22.9951 23.8531C22.8415 23.2294 22.7412 22.5938 22.6951 21.9531ZM30.4551 26.8731C30.454 26.6435 30.4238 26.415 30.3651 26.1931C29.7651 24.0331 26.3651 22.1931 24.7051 21.7331C24.0483 21.572 23.3794 21.465 22.7051 21.4131C22.7081 18.643 23.3335 15.909 24.5351 13.4131C24.5522 13.3754 24.5611 13.3345 24.5611 13.2931C24.5611 13.2517 24.5522 13.2108 24.5351 13.1731C24.5166 13.1384 24.491 13.1081 24.46 13.0839C24.429 13.0598 24.3932 13.0425 24.3551 13.0331L11.5351 10.3831C11.4924 10.3737 11.4481 10.3751 11.4061 10.3874C11.3642 10.3996 11.326 10.4222 11.2951 10.4531C11.2625 10.4828 11.2387 10.5209 11.2264 10.5633C11.214 10.6056 11.2136 10.6505 11.2251 10.6931L13.8551 23.5631C13.8644 23.6026 13.8816 23.6398 13.9056 23.6724C13.9297 23.7051 13.9601 23.7325 13.9951 23.7531C14.0311 23.77 14.0703 23.7788 14.1101 23.7788C14.1499 23.7788 14.1891 23.77 14.2251 23.7531C16.7199 22.5494 19.4551 21.9272 22.2251 21.9331C22.2757 22.6075 22.3828 23.2765 22.5451 23.9331C22.9751 25.6431 24.8351 29.0031 26.9951 29.6031C27.4653 29.73 27.9617 29.7214 28.4271 29.578C28.8925 29.4347 29.3079 29.1626 29.6251 28.7931C30.1448 28.288 30.4432 27.5977 30.4551 26.8731Z" fill="black"/>
<path d="M29.4939 12.323C29.497 12.0431 29.4634 11.7641 29.3939 11.493C29.2793 11.0665 29.0721 10.6707 28.7869 10.3336C28.5016 9.9965 28.1455 9.72654 27.7439 9.54297H27.634C27.5624 9.54297 27.4937 9.57141 27.443 9.62205C27.3924 9.67268 27.3639 9.74136 27.3639 9.81297C27.365 9.87059 27.3838 9.92648 27.4178 9.97302C27.4518 10.0195 27.4994 10.0545 27.5539 10.073C27.8678 10.2249 28.1459 10.4416 28.3699 10.7088C28.594 10.9759 28.7589 11.2875 28.8539 11.623C28.9598 12.182 28.9373 12.7577 28.7884 13.3068C28.6394 13.8559 28.3678 14.3641 27.9939 14.793C27.2501 15.6407 26.3125 16.2962 25.2609 16.7036C24.2092 17.111 23.0747 17.2583 21.9539 17.133C19.662 16.8479 17.4875 15.9573 15.6539 14.553C15.6024 14.517 15.54 14.5001 15.4774 14.5052C15.4148 14.5103 15.356 14.5371 15.311 14.5809C15.266 14.6247 15.2376 14.6828 15.2309 14.7453C15.2241 14.8077 15.2393 14.8705 15.2739 14.923C16.6783 16.7565 17.5688 18.9311 17.8539 21.223C17.9879 22.3461 17.8478 23.485 17.4455 24.5421C17.0432 25.5992 16.3907 26.5431 15.5439 27.293C15.1152 27.6707 14.6058 27.9454 14.0547 28.0962C13.5035 28.247 12.9252 28.2698 12.3639 28.163C12.0171 28.0658 11.6957 27.8936 11.4227 27.6586C11.1497 27.4236 10.9316 27.1315 10.7839 26.803C10.7709 26.7702 10.7513 26.7405 10.7264 26.7155C10.7014 26.6906 10.6717 26.6709 10.639 26.6579C10.6062 26.6448 10.5712 26.6385 10.5359 26.6393C10.5007 26.6402 10.466 26.6483 10.4339 26.663C10.3696 26.6915 10.3189 26.7441 10.2927 26.8095C10.2666 26.8749 10.267 26.9479 10.2939 27.013C10.4741 27.4172 10.7415 27.7765 11.0769 28.0653C11.4123 28.354 11.8074 28.5649 12.2339 28.683C12.8767 28.8057 13.5391 28.7793 14.1702 28.6059C14.8012 28.4326 15.384 28.1168 15.8739 27.683C16.7931 26.8774 17.5021 25.8599 17.9394 24.7186C18.3768 23.5772 18.5294 22.3465 18.384 21.133C18.1735 19.1785 17.5055 17.3011 16.4339 15.653C18.0728 16.7441 19.9477 17.4297 21.9039 17.653C23.1151 17.793 24.3421 17.6368 25.4795 17.1978C26.617 16.7589 27.6308 16.0503 28.4339 15.133C29.0917 14.3413 29.4649 13.3518 29.4939 12.323Z" fill="black"/>
</svg>
