<svg width="48" height="49" viewBox="0 0 48 49" fill="none" xmlns="http://www.w3.org/2000/svg">
<path d="M23.5602 42.6001L41.6629 24.0336L23.5602 5.46714L5.44565 24.0336L23.5602 42.6001ZM42.3039 24.0336C42.3053 24.0704 42.2986 24.1071 42.2842 24.1409C42.2698 24.1746 42.2481 24.2045 42.2208 24.2284L23.7145 43.1845C23.6901 43.211 23.6607 43.2322 23.628 43.2466C23.5953 43.2611 23.5602 43.2686 23.5246 43.2686C23.489 43.2686 23.4538 43.2611 23.4212 43.2466C23.3885 43.2322 23.3591 43.211 23.3347 43.1845L4.88773 24.2406C4.86218 24.2166 4.84178 24.1875 4.82781 24.155C4.81385 24.1225 4.80664 24.0874 4.80664 24.0519C4.80664 24.0164 4.81385 23.9813 4.82781 23.9488C4.84178 23.9163 4.86218 23.8871 4.88773 23.8632L23.3347 4.88277C23.3865 4.83431 23.4545 4.80816 23.5246 4.80973C23.5943 4.81044 23.6615 4.8363 23.7145 4.88277L42.2208 23.851C42.246 23.8741 42.2663 23.9022 42.2806 23.9335C42.2949 23.9649 42.3028 23.999 42.3039 24.0336Z" fill="black"/>
<path d="M17.0094 22.5083C16.9973 22.0317 17.169 21.5694 17.4873 21.2213C17.7038 21.0138 17.961 20.8559 18.2418 20.758C18.1962 20.7133 18.1456 20.6744 18.0909 20.6422C17.4678 20.1307 16.6991 19.8404 15.9008 19.8149C15.1024 19.7893 14.3176 20.03 13.6645 20.5006C13.1577 20.9485 12.732 21.4844 12.407 22.0836C11.9907 22.8854 11.3747 23.5603 10.6213 24.0398C11.378 24.5264 11.9944 25.2105 12.407 26.0217C12.7321 26.6171 13.1579 27.1488 13.6645 27.5919C14.3214 28.0507 15.1031 28.2853 15.8981 28.2622C16.693 28.239 17.4605 27.9593 18.0909 27.4631C18.1462 27.4268 18.1969 27.3836 18.2418 27.3345C17.961 27.2367 17.7038 27.0787 17.4873 26.8712C17.3285 26.6996 17.2045 26.4975 17.1225 26.2766C17.0405 26.0557 17.0021 25.8204 17.0094 25.5842C17.0102 25.1027 17.1953 24.6407 17.525 24.2972C17.6098 24.2059 17.7073 24.1279 17.8142 24.0656C17.7099 23.9945 17.6129 23.9125 17.525 23.821C17.3581 23.6483 17.2266 23.4432 17.1381 23.2178C17.0495 22.9924 17.0058 22.7512 17.0094 22.5083ZM20.1909 24.0398C20.1909 24.1149 20.1618 24.1869 20.1099 24.24C20.058 24.2931 19.9876 24.3229 19.9143 24.3229H18.7825C18.4631 24.3275 18.1574 24.4564 17.9274 24.6833C17.8116 24.8061 17.7208 24.9513 17.6604 25.1104C17.5999 25.2695 17.571 25.4393 17.5753 25.6099C17.567 25.9243 17.6799 26.2295 17.8897 26.4593C18.1498 26.6977 18.4741 26.8501 18.8202 26.8969C18.865 26.9047 18.907 26.9243 18.9423 26.9536C18.9775 26.9829 19.0048 27.0209 19.0214 27.0642C19.0459 27.1048 19.0589 27.1516 19.0589 27.1994C19.0589 27.2471 19.0459 27.2939 19.0214 27.3345C18.8669 27.5718 18.6656 27.7735 18.4304 27.9265C17.7168 28.497 16.8434 28.8186 15.9382 28.8441C15.033 28.8695 14.1436 28.5976 13.4004 28.0681C12.8409 27.5754 12.3687 26.9877 12.0046 26.3307C11.7973 25.8603 11.4969 25.439 11.1225 25.0934C10.748 24.7479 10.3076 24.4855 9.8291 24.3229C9.76816 24.3061 9.71428 24.2693 9.67568 24.2182C9.63709 24.1671 9.61589 24.1044 9.61533 24.0398C9.61367 23.9746 9.63402 23.9109 9.67297 23.8593C9.71192 23.8077 9.76707 23.7715 9.8291 23.7567C10.3084 23.592 10.7492 23.3274 11.1237 22.9796C11.4981 22.6318 11.798 22.2085 12.0046 21.7361C12.3656 21.0807 12.8383 20.4966 13.4004 20.0116C14.143 19.4822 15.0313 19.2092 15.936 19.2323C16.8407 19.2555 17.7146 19.5735 18.4304 20.1402C18.6628 20.2968 18.8635 20.4979 19.0214 20.7323C19.0459 20.7729 19.0589 20.8196 19.0589 20.8674C19.0589 20.9151 19.0459 20.9619 19.0214 21.0026C19.0048 21.0458 18.9775 21.0839 18.9423 21.1132C18.907 21.1425 18.865 21.162 18.8202 21.1699C18.4758 21.2225 18.153 21.3742 17.8897 21.6074C17.6799 21.8373 17.567 22.1424 17.5753 22.4569C17.5753 22.7982 17.7078 23.1255 17.9436 23.3669C18.1794 23.6082 18.4993 23.7438 18.8328 23.7438H19.9646C20.0311 23.7563 20.0909 23.7933 20.1326 23.8478C20.1744 23.9024 20.1951 23.9707 20.1909 24.0398Z" fill="black"/>
<path d="M23.5529 37.3436C23.993 36.5997 24.6041 35.9915 25.3267 35.5783C25.8655 35.2611 26.3457 34.8397 26.7434 34.3352C27.1646 33.6896 27.38 32.9137 27.3572 32.1244C27.3343 31.3352 27.0745 30.5753 26.6167 29.9593L26.5131 29.8102C26.4309 30.0904 26.2888 30.3459 26.0984 30.556C25.788 30.874 25.3745 31.0481 24.9466 31.0409C24.5162 31.0375 24.1036 30.855 23.7948 30.5312C23.7157 30.4416 23.6426 30.346 23.576 30.2452C23.517 30.3486 23.4475 30.4446 23.3687 30.5312C23.058 30.8517 22.6466 31.0337 22.2169 31.0409C21.7889 31.0481 21.3754 30.874 21.0651 30.556C20.8746 30.3459 20.7326 30.0904 20.6504 29.8102L20.5468 29.9593C20.089 30.5753 19.8292 31.3352 19.8063 32.1244C19.7835 32.9137 19.9989 33.6896 20.4201 34.3352C20.8134 34.8395 21.2898 35.261 21.8253 35.5783C22.5344 35.9933 23.1302 36.602 23.5529 37.3436ZM27.8837 32.371C27.8846 33.2146 27.6297 34.0354 27.1581 34.7081C26.7274 35.2708 26.2041 35.7428 25.6147 36.1004C25.1935 36.3039 24.8156 36.5987 24.5045 36.9665C24.1934 37.3344 23.9557 37.7674 23.8063 38.2386C23.7935 38.3012 23.7615 38.3573 23.7155 38.3978C23.6696 38.4384 23.6123 38.4611 23.5529 38.4624C23.4941 38.4591 23.4378 38.4356 23.3923 38.3953C23.3467 38.3551 23.3142 38.3002 23.2996 38.2386C23.1521 37.7682 22.9164 37.3355 22.6073 36.9677C22.2982 36.5998 21.9222 36.3046 21.5027 36.1004C20.9125 35.7388 20.3861 35.2675 19.9478 34.7081C19.4603 33.9676 19.209 33.076 19.2319 32.1679C19.2548 31.2598 19.5505 30.3843 20.0745 29.6734C20.2114 29.4443 20.392 29.2493 20.6043 29.1016C20.6415 29.0798 20.683 29.0684 20.7253 29.0684C20.7675 29.0684 20.8091 29.0798 20.8462 29.1016C20.8864 29.1191 20.9216 29.1479 20.9479 29.1851C20.9742 29.2223 20.9908 29.2664 20.996 29.3129C21.0379 29.6513 21.1745 29.968 21.3876 30.2204C21.5921 30.4312 21.865 30.5472 22.1478 30.5436C22.3005 30.5479 22.4524 30.5193 22.5948 30.4595C22.7372 30.3997 22.8671 30.31 22.977 30.1955C23.1801 29.9682 23.2954 29.666 23.2996 29.3502V28.2314C23.2914 28.1897 23.2919 28.1467 23.3011 28.1053C23.3104 28.0639 23.328 28.0252 23.3529 27.9921C23.3777 27.959 23.4091 27.9323 23.4447 27.914C23.4803 27.8956 23.5193 27.8862 23.5587 27.8862C23.5982 27.8862 23.6371 27.8956 23.6727 27.914C23.7083 27.9323 23.7397 27.959 23.7645 27.9921C23.7894 28.0252 23.8071 28.0639 23.8163 28.1053C23.8255 28.1467 23.826 28.1897 23.8179 28.2314V29.3502C23.822 29.666 23.9373 29.9682 24.1404 30.1955C24.2503 30.31 24.3802 30.3997 24.5226 30.4595C24.665 30.5193 24.817 30.5479 24.9697 30.5436C25.2524 30.5472 25.5253 30.4312 25.7299 30.2204C25.9388 29.965 26.0748 29.6498 26.1215 29.3129C26.1266 29.2664 26.1432 29.2223 26.1695 29.1851C26.1959 29.1479 26.231 29.1191 26.2712 29.1016C26.3086 29.0808 26.3501 29.0701 26.3921 29.0701C26.4342 29.0701 26.4757 29.0808 26.5131 29.1016C26.7254 29.2493 26.906 29.4443 27.0429 29.6734C27.5524 30.4523 27.8296 31.3804 27.8376 32.3338L27.8837 32.371Z" fill="black"/>
<path d="M47.1006 34.1505C47.1168 34.3018 47.1168 34.4542 47.1006 34.6055C47.0385 34.9424 46.8884 35.2587 46.6643 35.5246C46.4402 35.7905 46.1495 35.9973 45.8195 36.1255C45.5549 36.2285 45.2664 36.2611 44.9842 36.2202C44.702 36.1792 44.4364 36.066 44.2153 35.8925C43.9791 35.7127 43.7999 35.4731 43.6979 35.2005C43.596 34.928 43.5753 34.6335 43.6382 34.3502C43.6861 34.1054 43.8062 33.879 43.9842 33.698C44.1622 33.517 44.3907 33.3891 44.6423 33.3295C44.6749 33.3212 44.7089 33.3192 44.7423 33.3236C44.7757 33.3281 44.8078 33.3389 44.8368 33.3554C44.8658 33.3719 44.8911 33.3938 44.9112 33.4199C44.9313 33.4459 44.9459 33.4756 44.9539 33.507C44.9688 33.5716 44.9581 33.6392 44.924 33.6966C44.8898 33.754 44.8347 33.7972 44.7693 33.8177C44.6113 33.8546 44.468 33.9352 44.3573 34.0496C44.2465 34.164 44.173 34.3071 44.146 34.4612C44.1092 34.6519 44.1249 34.8486 44.1917 35.0316C44.2586 35.2146 44.3741 35.3775 44.5269 35.5042C44.6876 35.6262 44.8792 35.7049 45.0821 35.7322C45.2849 35.7594 45.4916 35.7344 45.681 35.6596C45.9226 35.5636 46.1362 35.4124 46.3032 35.219C46.4701 35.0256 46.5854 34.796 46.639 34.55C46.7028 34.2296 46.6835 33.899 46.5829 33.5874C46.4822 33.2759 46.3033 32.9929 46.0619 32.7636C45.8551 32.5618 45.5981 32.4142 45.3154 32.3346C45.0326 32.255 44.7334 32.2461 44.4461 32.3087C42.9457 32.5861 42.7034 34.5278 42.6687 35.3045V35.4931C42.7414 36.5277 42.4793 37.5586 41.9185 38.4445C41.6127 38.8215 41.2025 39.1079 40.735 39.2708C40.2675 39.4337 39.7616 39.4665 39.2756 39.3654C38.784 39.2541 38.344 38.9909 38.023 38.6161C37.7019 38.2414 37.5176 37.7757 37.4982 37.2906C37.492 36.8033 37.6643 36.3295 37.9851 35.9521C38.3059 35.5748 38.7545 35.318 39.2525 35.2268C39.5117 35.1905 39.7758 35.2042 40.0294 35.2671C40.2831 35.33 40.5211 35.4407 40.7298 35.5929C40.9344 35.7288 41.1084 35.9031 41.2413 36.1052C41.3741 36.3073 41.4632 36.5331 41.5031 36.7691C41.5039 36.8305 41.4816 36.8902 41.4404 36.9371C41.3991 36.9841 41.3416 37.0151 41.2784 37.0245C41.2153 37.034 41.1507 37.0212 41.0965 36.9885C41.0424 36.9559 41.0023 36.9055 40.9837 36.8467C40.9213 36.5036 40.7227 36.1973 40.4297 35.9924C40.1166 35.7645 39.7225 35.6648 39.3333 35.715C38.9655 35.7882 38.6346 35.9798 38.3954 36.2582C38.1562 36.5366 38.0229 36.8851 38.0176 37.2462C38.0408 37.6198 38.1878 37.9764 38.437 38.2638C38.6862 38.5513 39.0245 38.7546 39.4025 38.8439C39.7899 38.9257 40.1936 38.8992 40.5658 38.7674C40.9381 38.6357 41.2633 38.4043 41.5031 38.1005C41.994 37.2963 42.2194 36.3677 42.1494 35.4376V35.249C42.2302 33.2851 43.0381 32.0202 44.3422 31.7761C44.7148 31.7028 45.1005 31.7192 45.4649 31.8237C45.8294 31.9282 46.1613 32.1177 46.4312 32.3753C46.6593 32.614 46.8359 32.8938 46.9508 33.1985C47.0657 33.5032 47.1166 33.8268 47.1006 34.1505Z" fill="black"/>
<path d="M38.4594 40.7249C38.4557 41.1244 38.3645 41.518 38.1927 41.8762C38.021 42.2344 37.773 42.548 37.4673 42.7936C36.5694 43.3421 35.5332 43.6022 34.4912 43.5407H34.3017C33.488 43.5407 31.5485 43.8165 31.2699 45.2991C31.2131 45.5836 31.225 45.8782 31.3047 46.1568C31.3844 46.4354 31.5294 46.6895 31.7269 46.8967C31.9649 47.1325 32.2533 47.3074 32.5689 47.4072C32.8845 47.507 33.2184 47.529 33.5438 47.4713C33.7901 47.4162 34.02 47.3007 34.214 47.1347C34.408 46.9687 34.5604 46.7569 34.6584 46.5174C34.7396 46.3293 34.7671 46.1212 34.7375 45.9176C34.7078 45.714 34.6224 45.5233 34.4912 45.3681C34.3568 45.2062 34.1813 45.0861 33.9845 45.0212C33.7876 44.9562 33.5772 44.949 33.3766 45.0003C33.2221 45.0235 33.0779 45.0939 32.9626 45.2025C32.8474 45.3111 32.7664 45.4529 32.7301 45.6095C32.706 45.6686 32.6619 45.7167 32.606 45.7448C32.5501 45.773 32.4862 45.7791 32.4262 45.7622C32.3662 45.7454 32.3142 45.7066 32.2798 45.6531C32.2455 45.5996 32.2312 45.5351 32.2396 45.4715C32.3046 45.2229 32.4364 44.9982 32.6198 44.8233C32.8032 44.6484 33.0307 44.5305 33.2762 44.4831C33.5624 44.4247 33.8586 44.4473 34.1334 44.5485C34.4081 44.6497 34.6512 44.8256 34.8368 45.0577C35.009 45.2768 35.1215 45.5392 35.1626 45.818C35.2038 46.0968 35.1721 46.3818 35.0708 46.6438C34.9628 46.981 34.7747 47.2849 34.5235 47.5278C34.2723 47.7707 33.9662 47.9449 33.6329 48.0345C33.2332 48.108 32.8221 48.0817 32.4343 47.9577C32.0464 47.8337 31.693 47.6157 31.4036 47.3219C31.1486 47.0532 30.9613 46.7241 30.8584 46.3634C30.7554 46.0027 30.7397 45.6215 30.8129 45.2532C31.0581 43.9544 32.3288 43.1614 34.3129 43.0809H34.5024C35.4438 43.1503 36.3836 42.926 37.1998 42.4373C37.503 42.1995 37.7342 41.8775 37.8665 41.5091C37.9987 41.1407 38.0265 40.7411 37.9466 40.3571C37.8501 39.9823 37.6424 39.6478 37.3527 39.4006C37.0629 39.1533 36.7055 39.0056 36.3304 38.9779C35.9611 38.9769 35.6026 39.1064 35.3146 39.3448C35.0267 39.5832 34.8265 39.9161 34.7476 40.2881C34.7026 40.6558 34.7917 41.0276 34.9977 41.3314C35.2037 41.6351 35.5118 41.849 35.8622 41.9316C35.8952 41.9342 35.9273 41.944 35.9563 41.9603C35.9853 41.9766 36.0107 41.9991 36.0307 42.0263C36.0507 42.0534 36.0649 42.0846 36.0724 42.1178C36.0798 42.151 36.0804 42.1855 36.074 42.219C36.0699 42.2523 36.0594 42.2844 36.0431 42.3135C36.0268 42.3426 36.0051 42.3681 35.9791 42.3884C35.9532 42.4088 35.9236 42.4235 35.892 42.4319C35.8605 42.4403 35.8276 42.4422 35.7953 42.4373C35.5551 42.398 35.3249 42.3097 35.1182 42.1774C34.9114 42.0452 34.7324 41.8718 34.5915 41.6673C34.2928 41.2472 34.1648 40.7235 34.2348 40.2076C34.3288 39.7108 34.5889 39.2638 34.9699 38.9445C35.3508 38.6253 35.8284 38.454 36.3192 38.4607C36.8039 38.4936 37.2664 38.682 37.6421 38.9993C38.0179 39.3167 38.288 39.7472 38.4148 40.2307C38.4428 40.3938 38.4578 40.5591 38.4594 40.7249Z" fill="black"/>
<path d="M46.5552 47.5272V40.752C45.3978 41.2275 44.1489 41.4352 42.9009 41.3598C41.6528 41.2843 40.4376 40.9277 39.3453 40.3162C39.9527 41.4074 40.3091 42.6215 40.3884 43.8694C40.4677 45.1173 40.2679 46.3672 39.8036 47.5272H46.5552ZM47.1127 40.3162V47.7888C47.1127 47.8647 47.0827 47.9376 47.0292 47.9914C46.9758 48.0451 46.9033 48.0752 46.8278 48.0752H39.3948C39.3478 48.0719 39.3022 48.0578 39.2614 48.0341C39.2206 48.0103 39.1857 47.9776 39.1595 47.9382C39.1387 47.8956 39.1279 47.8487 39.1279 47.8012C39.1279 47.7537 39.1387 47.7069 39.1595 47.6643C39.8358 46.227 40.0466 44.6127 39.7621 43.0487C39.4776 41.4847 38.7123 40.0498 37.5738 38.9462C37.525 38.8914 37.498 38.8204 37.498 38.7469C37.498 38.6734 37.525 38.6025 37.5738 38.5477C37.6289 38.4981 37.6983 38.4675 37.772 38.4605C37.8466 38.4635 37.9173 38.4946 37.9702 38.5477C39.0808 39.7059 40.5279 40.4805 42.1037 40.7602C43.6796 41.0399 45.3031 40.8104 46.741 40.1045C46.7832 40.0826 46.8299 40.0712 46.8773 40.0712C46.9247 40.0712 46.9714 40.0826 47.0136 40.1045C47.0453 40.1296 47.0708 40.1618 47.088 40.1986C47.1052 40.2353 47.1137 40.2756 47.1127 40.3162Z" fill="black"/>
<path d="M47.1126 13.9182C47.1164 14.2496 47.0514 14.5783 46.9216 14.8847C46.7918 15.1911 46.5998 15.4687 46.3572 15.7011C46.0895 15.9599 45.7603 16.1502 45.3989 16.2551C45.0375 16.3601 44.655 16.3765 44.2855 16.3029C42.9922 16.0577 42.191 14.7874 42.1108 12.815V12.6255C42.1803 11.6914 41.9568 10.7588 41.4699 9.95104C41.2321 9.64596 40.9096 9.41353 40.5404 9.28122C40.1713 9.14892 39.771 9.12221 39.3868 9.20437C39.0119 9.29409 38.6763 9.49825 38.4292 9.78699C38.1821 10.0757 38.0363 10.4339 38.0133 10.8091C38.0063 11.1785 38.1332 11.5386 38.3719 11.826C38.6105 12.1133 38.9455 12.3097 39.3181 12.3804C39.5074 12.4063 39.7002 12.3949 39.885 12.3471C40.0698 12.2992 40.2429 12.2158 40.394 12.1018C40.5409 12.0017 40.666 11.8744 40.7622 11.7271C40.8585 11.5799 40.9239 11.4156 40.9548 11.2437C40.9686 11.1787 41.0067 11.1211 41.0617 11.082C41.1167 11.0429 41.1847 11.025 41.2524 11.0319C41.3204 11.0429 41.3812 11.0794 41.4219 11.1336C41.4626 11.1877 41.4798 11.2553 41.4699 11.3217C41.4303 11.5587 41.342 11.7855 41.2103 11.9885C41.0785 12.1915 40.9059 12.3665 40.703 12.5029C40.4958 12.6553 40.2597 12.7661 40.0082 12.8293C39.7568 12.8924 39.495 12.9065 39.238 12.8707C38.7441 12.7791 38.2992 12.5212 37.9811 12.1422C37.663 11.7632 37.492 11.2874 37.4982 10.798C37.5174 10.3107 37.7002 9.84303 38.0186 9.46663C38.337 9.09023 38.7734 8.82583 39.2609 8.71404C39.7429 8.61252 40.2445 8.64551 40.7082 8.80913C41.1718 8.97274 41.5787 9.26035 41.8819 9.63899C42.438 10.5287 42.6979 11.5641 42.6259 12.6032V12.7927C42.6259 13.6062 42.9006 15.534 44.3885 15.8126C44.6745 15.871 44.971 15.8587 45.2509 15.7769C45.5307 15.6952 45.7851 15.5465 45.9909 15.3445C46.2279 15.1126 46.4037 14.8283 46.5033 14.5159C46.603 14.2035 46.6235 13.8722 46.5632 13.5504C46.5101 13.3034 46.3958 13.0727 46.2302 12.8785C46.0647 12.6843 45.8528 12.5324 45.6132 12.4361C45.4254 12.3609 45.2204 12.3357 45.0192 12.3631C44.8181 12.3905 44.6281 12.4695 44.4687 12.5921C44.3153 12.7203 44.1995 12.8858 44.1332 13.0718C44.0668 13.2578 44.0523 13.4575 44.0909 13.6508C44.1217 13.8039 44.1959 13.9456 44.3051 14.0599C44.4144 14.1741 44.5543 14.2562 44.709 14.297C44.7415 14.3048 44.772 14.3188 44.7989 14.3383C44.8257 14.3577 44.8483 14.3821 44.8654 14.4101C44.8824 14.4381 44.8936 14.4692 44.8982 14.5014C44.9028 14.5337 44.9007 14.5665 44.8921 14.5979C44.8734 14.6626 44.8293 14.7176 44.7694 14.7509C44.7094 14.7843 44.6384 14.7933 44.5717 14.7762C44.3249 14.7133 44.1015 14.5836 43.9273 14.4022C43.7531 14.2207 43.6352 13.995 43.5873 13.751C43.5249 13.4665 43.5454 13.1708 43.6466 12.8971C43.7477 12.6234 43.9254 12.3826 44.1596 12.202C44.3789 12.0278 44.6423 11.9142 44.9222 11.873C45.2021 11.8319 45.4882 11.8647 45.7506 11.968C46.0767 12.0986 46.3639 12.3068 46.5859 12.5735C46.8078 12.8403 46.9575 13.157 47.021 13.4947C47.0656 13.6326 47.0963 13.7745 47.1126 13.9182Z" fill="black"/>
<path d="M38.4432 7.29299C38.4647 7.47622 38.4647 7.66149 38.4432 7.84472C38.3179 8.32902 38.048 8.76047 37.6716 9.07809C37.2953 9.39571 36.8316 9.58339 36.346 9.61466C35.8553 9.61909 35.3785 9.447 34.9977 9.12811C34.6169 8.80921 34.356 8.36346 34.2599 7.86766C34.2244 7.61136 34.2386 7.35038 34.3018 7.0998C34.365 6.84922 34.4759 6.61409 34.6281 6.40806C34.7669 6.20392 34.9441 6.03056 35.1491 5.89828C35.3541 5.766 35.5829 5.67746 35.8217 5.63795C35.8868 5.62881 35.9527 5.64667 36.005 5.68762C36.0573 5.72857 36.0917 5.78927 36.1006 5.85633C36.1095 5.92339 36.0921 5.99136 36.0524 6.04524C36.0126 6.09913 35.9537 6.13452 35.8886 6.14366C35.5419 6.21603 35.2349 6.42145 35.0297 6.71833C34.8063 7.02417 34.7063 7.40717 34.7508 7.7872C34.8279 8.16019 35.0276 8.49435 35.3163 8.73309C35.6049 8.97183 35.9647 9.10052 36.3349 9.09745C36.7113 9.07316 37.0707 8.92658 37.3613 8.6788C37.6519 8.43101 37.8588 8.09474 37.9524 7.71824C38.031 7.33416 38.0025 6.93506 37.8703 6.56695C37.738 6.19883 37.5074 5.87673 37.205 5.63795C36.3862 5.15447 35.4471 4.93059 34.5054 4.99433H34.3157C32.3412 4.91388 31.0583 4.12082 30.8129 2.82208C30.7397 2.45373 30.7554 2.07251 30.8584 1.71182C30.9615 1.35114 31.1489 1.02202 31.4042 0.753302C31.6937 0.459518 32.0474 0.241516 32.4356 0.117536C32.8238 -0.00644493 33.2351 -0.0327873 33.6352 0.0407219C33.9742 0.105743 34.2922 0.256315 34.5608 0.478947C34.8295 0.701577 35.0404 0.989307 35.1747 1.31646C35.276 1.57842 35.3077 1.86354 35.2666 2.14233C35.2254 2.42112 35.1128 2.6835 34.9404 2.90254C34.7563 3.13663 34.5132 3.31406 34.2377 3.41541C33.9623 3.51676 33.6651 3.53813 33.3787 3.47721C33.1329 3.42981 32.9052 3.31192 32.7217 3.13705C32.5381 2.96219 32.4063 2.73748 32.3412 2.4888C32.3329 2.45483 32.3312 2.41948 32.3363 2.38484C32.3413 2.3502 32.353 2.31699 32.3707 2.28705C32.3883 2.25711 32.4116 2.23105 32.4391 2.21045C32.4666 2.18984 32.4978 2.1751 32.5308 2.16703C32.5623 2.15842 32.5952 2.15631 32.6275 2.16092C32.6598 2.16554 32.6908 2.17677 32.7189 2.19389C32.7469 2.21101 32.7714 2.23372 32.7908 2.26067C32.8102 2.28763 32.8242 2.31828 32.832 2.35089C32.8717 2.50689 32.9536 2.64808 33.0681 2.75797C33.1827 2.86785 33.3252 2.94189 33.4791 2.9715C33.6808 3.02144 33.8921 3.01241 34.0892 2.9454C34.2863 2.8784 34.4613 2.75614 34.5946 2.59227C34.7144 2.44442 34.7931 2.26593 34.8226 2.07576C34.8521 1.88559 34.8311 1.69081 34.7619 1.5119C34.6662 1.26968 34.5145 1.05516 34.3201 0.886936C34.1257 0.718712 33.8945 0.601826 33.6464 0.546431C33.3208 0.488742 32.9866 0.510727 32.6708 0.610547C32.3549 0.710367 32.0662 0.885229 31.8281 1.1211C31.6296 1.32769 31.484 1.58175 31.4041 1.86054C31.3243 2.13934 31.3128 2.43419 31.3707 2.71868C31.6607 4.20132 33.6018 4.44264 34.405 4.47712H34.5946C35.6374 4.41557 36.6744 4.67569 37.5731 5.22421C37.8566 5.48213 38.0815 5.80121 38.2319 6.15875C38.3823 6.51628 38.4544 6.9035 38.4432 7.29299Z" fill="black"/>
<path d="M46.5572 7.32346V0.549111H39.8298C40.2924 1.70902 40.4915 2.95872 40.4125 4.20645C40.3335 5.45419 39.9783 6.66822 39.3731 7.75928C40.4615 7.14785 41.6724 6.79124 42.9159 6.7158C44.1595 6.64035 45.404 6.84803 46.5572 7.32346ZM47.1127 0.262644V7.73435C47.1139 7.78259 47.1019 7.83024 47.0779 7.872C47.0539 7.91376 47.019 7.948 46.9769 7.97096C46.9356 7.99501 46.8888 8.00767 46.8411 8.00767C46.7935 8.00767 46.7466 7.99501 46.7053 7.97096C45.2717 7.26897 43.655 7.04152 42.0857 7.32103C40.5163 7.60055 39.0746 8.37276 37.9659 9.52757C37.9132 9.58061 37.8427 9.61174 37.7684 9.61475C37.6981 9.60988 37.6321 9.5788 37.5832 9.52757C37.5563 9.50196 37.5349 9.47108 37.5202 9.43682C37.5056 9.40255 37.498 9.36567 37.498 9.32835C37.498 9.29104 37.5056 9.25408 37.5202 9.21982C37.5349 9.18556 37.5563 9.15468 37.5832 9.12907C38.7019 8.01553 39.4536 6.58163 39.7363 5.02207C40.019 3.46252 39.8189 1.85292 39.1632 0.412072C39.1395 0.368149 39.127 0.318919 39.127 0.268877C39.127 0.218834 39.1395 0.169604 39.1632 0.125681C39.192 0.0870161 39.2293 0.0556316 39.2721 0.0340176C39.315 0.0124035 39.3622 0.00118351 39.4101 0.00118351H46.8164C46.8531 -0.00222492 46.8901 0.00189018 46.9251 0.0133438C46.9601 0.0247984 46.9925 0.0433044 47.0202 0.0677643C47.0479 0.0922251 47.0704 0.122126 47.0863 0.155627C47.1022 0.189129 47.1112 0.225531 47.1127 0.262644Z" fill="black"/>
<path d="M10.5762 37.2657C10.5552 37.7565 10.3552 38.2276 10.007 38.6067C9.6588 38.9859 9.18153 39.2521 8.64836 39.3647C8.12117 39.467 7.5725 39.4338 7.0654 39.269C6.5583 39.1042 6.11334 38.8144 5.78165 38.433C5.17341 37.5369 4.88918 36.4939 4.96795 35.4472V35.2564C4.96795 34.437 4.66751 32.4951 3.04012 32.2144C2.72732 32.1557 2.4031 32.1681 2.09699 32.2504C1.79088 32.3327 1.51261 32.4824 1.28754 32.6859C1.0284 32.9195 0.83614 33.2059 0.72715 33.5206C0.61816 33.8353 0.595678 34.169 0.661622 34.4931C0.719712 34.742 0.844744 34.9743 1.02583 35.17C1.20692 35.3656 1.43858 35.5186 1.70065 35.6156C1.9061 35.6914 2.13032 35.7168 2.35031 35.6891C2.57031 35.6615 2.77814 35.5819 2.95249 35.4585C3.12025 35.3293 3.24686 35.1626 3.31942 34.9753C3.39198 34.7879 3.40792 34.5867 3.3656 34.3921C3.33195 34.2378 3.2508 34.095 3.13133 33.98C3.01186 33.8649 2.85884 33.7821 2.6896 33.741C2.61822 33.7246 2.55702 33.6835 2.51946 33.6267C2.4819 33.5698 2.47105 33.502 2.48931 33.438C2.50757 33.374 2.55344 33.3191 2.61683 33.2854C2.68021 33.2517 2.75593 33.242 2.82731 33.2583C3.10021 33.3186 3.348 33.4481 3.54111 33.6312C3.73423 33.8143 3.86451 34.0434 3.9164 34.2911C3.98466 34.5776 3.96222 34.8756 3.85162 35.1513C3.74102 35.427 3.54665 35.6694 3.29048 35.8513C3.05061 36.0268 2.76255 36.1413 2.45644 36.1828C2.15033 36.2242 1.83741 36.1912 1.55043 36.0871C1.18288 35.9775 0.852308 35.7862 0.5896 35.531C0.326892 35.2758 0.14063 34.9651 0.0482237 34.6278C-0.0361357 34.2252 -0.00952013 33.8103 0.125747 33.419C0.261015 33.0277 0.500841 32.672 0.824367 32.3828C1.11713 32.1222 1.47715 31.9306 1.87245 31.8248C2.26775 31.7191 2.68606 31.7025 3.09019 31.7766C4.50477 32.0236 5.38106 33.3032 5.46869 35.2901V35.4809C5.39275 36.4219 5.63721 37.3613 6.16972 38.1749C6.43179 38.4801 6.78474 38.7127 7.18787 38.8458C7.59099 38.9788 8.02785 39.0069 8.44806 38.9269C8.85807 38.8366 9.22507 38.6309 9.49536 38.3401C9.76566 38.0492 9.92507 37.6885 9.95028 37.3105C9.95308 36.9395 9.81242 36.579 9.55224 36.2905C9.29205 36.0019 8.92841 35.8031 8.52317 35.7279C8.10099 35.6771 7.67355 35.778 7.33393 36.0085C7.01618 36.2158 6.80072 36.5257 6.73304 36.8728C6.71793 36.9382 6.67626 36.9963 6.61612 37.0357C6.55598 37.0751 6.48165 37.0931 6.40757 37.0861C6.33321 37.075 6.26665 37.0382 6.22218 36.9837C6.17771 36.9291 6.15887 36.8611 6.16972 36.7942C6.21296 36.5555 6.30954 36.327 6.45367 36.1225C6.5978 35.9181 6.78649 35.7419 7.00845 35.6044C7.46678 35.295 8.04164 35.158 8.6108 35.2227C9.15184 35.3059 9.64377 35.5553 10.0023 35.928C10.3609 36.3007 10.5638 36.7736 10.5762 37.2657Z" fill="black"/>
<path d="M16.3441 45.4893C16.3418 46.1464 16.1168 46.7767 15.717 47.2466C15.4313 47.5698 15.0825 47.8096 14.6996 47.9459C14.3167 48.0823 13.911 48.1113 13.5164 48.0304C13.1814 47.9611 12.8668 47.7962 12.6016 47.5511C12.3363 47.3059 12.1288 46.9882 11.998 46.6271C11.8981 46.3389 11.8668 46.0253 11.9074 45.7187C11.948 45.412 12.059 45.1233 12.2291 44.8824C12.4099 44.6238 12.6496 44.4278 12.9215 44.3162C13.1934 44.2047 13.4869 44.1818 13.7695 44.2503C14.0118 44.3024 14.2364 44.4322 14.4174 44.6245C14.5985 44.8169 14.7286 45.064 14.7927 45.3376C14.8064 45.4128 14.7946 45.4912 14.7599 45.557C14.7252 45.6227 14.6701 45.6707 14.6057 45.6915C14.5746 45.701 14.5422 45.7032 14.5104 45.6982C14.4785 45.6931 14.4479 45.6808 14.4202 45.662C14.3926 45.6431 14.3684 45.6182 14.3493 45.5885C14.3301 45.5589 14.3163 45.5251 14.3086 45.4893C14.2695 45.3177 14.1887 45.1624 14.0757 45.0415C13.9628 44.9206 13.8222 44.8391 13.6704 44.8065C13.4714 44.7516 13.263 44.7616 13.0686 44.8353C12.8742 44.909 12.7016 45.0435 12.5701 45.2238C12.452 45.3864 12.3743 45.5827 12.3453 45.7918C12.3162 46.001 12.3369 46.2154 12.4051 46.4122C12.4996 46.6786 12.6492 46.9146 12.8409 47.0996C13.0326 47.2846 13.2607 47.4132 13.5054 47.4742C13.8265 47.5376 14.1562 47.5134 14.4677 47.4036C14.7792 47.2938 15.0639 47.1015 15.2989 46.842C15.4938 46.6141 15.6369 46.3346 15.7156 46.0281C15.7942 45.7216 15.806 45.3977 15.75 45.0847C15.4639 43.4538 13.5494 43.1883 12.7572 43.1504H12.5701C11.5416 43.2181 10.5188 42.932 9.63238 42.3287C9.25645 41.9982 8.96997 41.5518 8.80634 41.0414C8.64271 40.5311 8.60865 39.9779 8.70813 39.4461C8.83116 38.9154 9.09575 38.4422 9.46477 38.093C9.83379 37.7438 10.2887 37.5362 10.7657 37.4992C11.2515 37.4914 11.7245 37.6793 12.1023 38.0304C12.4802 38.3814 12.7391 38.8734 12.8342 39.4209C12.8693 39.7028 12.8552 39.9899 12.7929 40.2655C12.7306 40.5412 12.6212 40.7998 12.4711 41.0265C12.3333 41.25 12.1583 41.44 11.9562 41.5853C11.7542 41.7307 11.529 41.8287 11.2938 41.8736C11.262 41.8794 11.2295 41.8779 11.1982 41.8693C11.1669 41.8607 11.1374 41.845 11.1114 41.8233C11.0853 41.8016 11.0632 41.7742 11.0464 41.7427C11.0296 41.7112 11.0183 41.6762 11.0132 41.6397C11.0082 41.6031 11.0094 41.5658 11.0169 41.5298C11.0244 41.4938 11.038 41.46 11.0569 41.43C11.0758 41.4001 11.0997 41.3747 11.1271 41.3553C11.1545 41.336 11.185 41.3231 11.2168 41.3173C11.5632 41.2419 11.8708 41.0154 12.075 40.6852C12.2925 40.3475 12.3872 39.9258 12.3391 39.5093C12.2634 39.1012 12.068 38.7353 11.7856 38.473C11.5032 38.2106 11.1509 38.0677 10.7877 38.0682C10.4169 38.0968 10.0633 38.2586 9.77694 38.5309C9.49062 38.8032 9.28607 39.1721 9.19226 39.5853C9.11339 40.0078 9.14083 40.4473 9.27138 40.8525C9.40193 41.2578 9.63018 41.6119 9.92945 41.8736C10.7371 42.4054 11.6633 42.6516 12.5922 42.5815H12.7682C14.7267 42.67 15.992 43.5423 16.2341 44.9709C16.2874 45.1384 16.3243 45.3123 16.3441 45.4893Z" fill="black"/>
<path d="M6.67208 44.3436C6.66713 42.9452 7.034 41.571 7.73464 40.3635C6.64517 40.9742 5.4332 41.3304 4.18845 41.4057C2.9437 41.4811 1.69805 41.2736 0.54372 40.7988L0.54372 47.5649H7.2775C6.87827 46.5384 6.67295 45.446 6.67208 44.3436ZM9.61269 38.759C9.61417 38.7966 9.60714 38.834 9.59216 38.8685C9.57718 38.903 9.55463 38.9336 9.5262 38.958C8.39072 40.0601 7.62734 41.4931 7.34361 43.055C7.05989 44.617 7.27013 46.2291 7.9447 47.6644C7.96849 47.7083 7.98095 47.7575 7.98095 47.8075C7.98095 47.8574 7.96849 47.9066 7.9447 47.9505C7.91592 47.9891 7.87862 48.0205 7.83573 48.042C7.79283 48.0636 7.74553 48.0749 7.69758 48.0749H0.284255C0.247533 48.0766 0.210853 48.0708 0.176434 48.0578C0.142016 48.0448 0.110581 48.0249 0.0840166 47.9993C0.0574522 47.9737 0.0363127 47.943 0.0218863 47.909C0.00745989 47.8749 4.4756e-05 47.8382 8.27518e-05 47.8012L8.27518e-05 40.3386C-0.00112596 40.2904 0.0109267 40.2429 0.0349138 40.2012C0.0589009 40.1595 0.0938878 40.1252 0.135994 40.1023C0.177317 40.0782 0.224191 40.0656 0.271906 40.0656C0.319621 40.0656 0.366486 40.0782 0.407808 40.1023C1.84052 40.8043 3.45717 41.032 5.02627 40.7528C6.59537 40.4735 8.03646 39.7016 9.14319 38.5475C9.19818 38.498 9.26744 38.4675 9.34087 38.4605C9.41529 38.4635 9.48587 38.4946 9.53856 38.5475C9.5665 38.5745 9.58776 38.6077 9.60064 38.6444C9.61351 38.6811 9.61764 38.7204 9.61269 38.759Z" fill="black"/>
<path d="M10.5762 10.8584C10.5712 11.3388 10.3769 11.8028 10.0262 12.1715C9.67558 12.5402 9.19028 12.7908 8.65291 12.8807C8.36875 12.9164 8.07936 12.9023 7.80139 12.8394C7.52343 12.7765 7.26239 12.6659 7.0333 12.514C6.80896 12.3779 6.61822 12.2035 6.47254 12.0011C6.32687 11.7987 6.22925 11.5725 6.18554 11.3362C6.17458 11.27 6.19361 11.2026 6.23856 11.1486C6.28351 11.0946 6.35079 11.0582 6.42595 11.0473C6.50083 11.0404 6.57595 11.0582 6.63674 11.0972C6.69753 11.1362 6.73965 11.1937 6.75493 11.2584C6.78908 11.4298 6.86142 11.5936 6.96781 11.7405C7.07421 11.8873 7.21256 12.0143 7.37493 12.114C7.54199 12.2278 7.73331 12.3109 7.9376 12.3586C8.14189 12.4064 8.355 12.4177 8.56434 12.3918C8.98436 12.3286 9.36511 12.1362 9.63861 11.8493C9.91211 11.5623 10.0605 11.1993 10.0574 10.825C10.0319 10.4509 9.87081 10.0938 9.5976 9.80592C9.3244 9.51802 8.95346 9.31445 8.53903 9.22498C8.1143 9.14445 7.67224 9.17169 7.26447 9.30352C6.8567 9.43534 6.50005 9.66635 6.23616 9.9695C5.69792 10.7749 5.45082 11.7048 5.52757 12.6362V12.8252C5.439 14.7919 4.55327 16.0586 3.12347 16.303C2.71498 16.3764 2.29216 16.3601 1.89261 16.2554C1.49306 16.1507 1.12915 15.961 0.833243 15.703C0.506233 15.4167 0.263825 15.0646 0.127101 14.6773C-0.00962263 14.29 -0.0365248 13.8792 0.0487429 13.4807C0.119016 13.144 0.284437 12.8282 0.529831 12.5622C0.775224 12.2963 1.09274 12.0886 1.45325 11.9584C1.74332 11.8554 2.05961 11.8226 2.36902 11.8637C2.67842 11.9047 2.96958 12.0181 3.21204 12.1918C3.47097 12.3719 3.66742 12.6119 3.77922 12.8848C3.89101 13.1577 3.91369 13.4526 3.8447 13.7363C3.79176 13.9795 3.66147 14.2046 3.46889 14.3856C3.27631 14.5665 3.02933 14.6958 2.75653 14.7586C2.68273 14.7756 2.60422 14.7666 2.53795 14.7333C2.47168 14.7001 2.42294 14.6453 2.40223 14.5807C2.38595 14.5161 2.39767 14.4484 2.4351 14.3909C2.47252 14.3334 2.53297 14.2902 2.60469 14.2697C2.77617 14.2335 2.93201 14.1543 3.05329 14.0419C3.17458 13.9295 3.2561 13.7886 3.28796 13.6363C3.33074 13.4436 3.31463 13.2444 3.24129 13.059C3.16794 12.8736 3.03997 12.7086 2.87041 12.5807C2.69418 12.4585 2.48411 12.3797 2.26175 12.3523C2.03938 12.325 1.81275 12.3501 1.60509 12.4251C1.34019 12.5212 1.10604 12.6726 0.923003 12.8663C0.739966 13.0599 0.613588 13.2899 0.554872 13.5363C0.488217 13.8571 0.510941 14.1874 0.621105 14.499C0.731269 14.8105 0.925604 15.094 1.18753 15.3253C1.41502 15.5267 1.69629 15.6748 2.00569 15.7563C2.3151 15.8378 2.64281 15.8501 2.95898 15.7919C4.60389 15.503 4.86961 13.5696 4.90757 12.7807V12.5918C4.82795 11.5557 5.11524 10.5232 5.73003 9.6361C6.06529 9.25856 6.51504 8.97178 7.0276 8.80864C7.54016 8.6455 8.09474 8.61267 8.62761 8.7139C9.16652 8.82536 9.64892 9.08894 10.0009 9.46425C10.3529 9.83956 10.555 10.3059 10.5762 10.7917V10.8584Z" fill="black"/>
<path d="M16.3318 2.34218C16.3482 2.49899 16.3482 2.65714 16.3318 2.81394C16.0865 4.11424 14.8047 4.90825 12.8318 4.9888H12.6423C11.7013 4.92498 10.763 5.14913 9.94488 5.63319C9.6417 5.87134 9.41047 6.19369 9.27822 6.56252C9.14597 6.93135 9.11817 7.33142 9.19807 7.71597C9.29311 8.09207 9.50032 8.42782 9.79038 8.67564C10.0804 8.92345 10.4386 9.07079 10.8143 9.09683C11.1836 9.09776 11.5421 8.96811 11.83 8.72944C12.118 8.49076 12.3181 8.15744 12.3971 7.78501C12.4415 7.40453 12.3416 7.02107 12.1184 6.71486C11.9134 6.41763 11.6066 6.21196 11.2602 6.1395C11.1951 6.13035 11.1363 6.09492 11.0966 6.04097C11.0568 5.98702 11.0395 5.91897 11.0484 5.85183C11.0572 5.78469 11.0916 5.72392 11.1438 5.68292C11.1961 5.64191 11.262 5.62403 11.327 5.63319C11.5657 5.67275 11.7942 5.76139 11.9991 5.89383C12.204 6.02626 12.381 6.19984 12.5197 6.40421C12.6717 6.6105 12.7826 6.84591 12.8457 7.09679C12.9088 7.34767 12.9231 7.60896 12.8875 7.86557C12.7916 8.36196 12.5309 8.80824 12.1504 9.12752C11.7699 9.4468 11.2935 9.6191 10.8032 9.61466C10.318 9.58336 9.85467 9.39544 9.47863 9.07745C9.10259 8.75945 8.83289 8.32748 8.70764 7.8426C8.60822 7.35864 8.64336 6.85551 8.80903 6.39129C8.9747 5.92707 9.26413 5.52065 9.64393 5.21895C10.5419 4.66978 11.578 4.40934 12.62 4.47096H12.8095C13.6232 4.47096 15.5627 4.19483 15.8413 2.71042C15.8981 2.42557 15.8862 2.13062 15.8065 1.85167C15.7268 1.57273 15.5818 1.31834 15.3843 1.11092C15.1463 0.87477 14.8579 0.699698 14.5423 0.599759C14.2267 0.49982 13.8928 0.477809 13.5675 0.535565C13.3211 0.590796 13.0912 0.706388 12.8972 0.872617C12.7032 1.03885 12.5508 1.25085 12.4528 1.49067C12.3716 1.67899 12.3441 1.8873 12.3738 2.09117C12.4034 2.29504 12.4888 2.48596 12.62 2.64138C12.7545 2.8034 12.9299 2.92366 13.1268 2.98868C13.3236 3.05371 13.5341 3.06095 13.7347 3.00961C13.8886 2.98493 14.0321 2.91387 14.1471 2.80538C14.2621 2.69689 14.3435 2.55577 14.3811 2.39971C14.3994 2.3329 14.4423 2.27619 14.5007 2.24175C14.5591 2.20731 14.6282 2.19793 14.6932 2.21562C14.758 2.23446 14.8129 2.27876 14.8463 2.33902C14.8796 2.39929 14.8887 2.47066 14.8716 2.53779C14.8066 2.78676 14.6748 3.01174 14.4914 3.18681C14.308 3.36189 14.0805 3.47999 13.835 3.52745C13.5488 3.58844 13.2518 3.56697 12.9766 3.4655C12.7014 3.36403 12.4585 3.18646 12.2745 2.95209C12.1022 2.73278 11.9898 2.47002 11.9486 2.1909C11.9075 1.91178 11.9392 1.62639 12.0404 1.36411C12.155 1.04566 12.341 0.75967 12.5831 0.529666C12.8253 0.299662 13.1168 0.132146 13.4337 0.0407696C13.8335 -0.0328274 14.2445 -0.00645351 14.6324 0.117676C15.0202 0.241805 15.3736 0.460069 15.663 0.754203C16.0777 1.17346 16.3176 1.74316 16.3318 2.34218Z" fill="black"/>
<path d="M0.555465 7.28889C1.70852 6.81403 2.9528 6.6066 4.19617 6.68196C5.43955 6.75731 6.65017 7.11348 7.73845 7.72418C7.13334 6.63444 6.77824 5.42188 6.69921 4.17565C6.62019 2.92943 6.81926 1.68125 7.28181 0.522746H0.555465L0.555465 7.28889ZM9.61443 9.32863C9.6159 9.36622 9.60888 9.4037 9.59392 9.43817C9.57895 9.47264 9.55643 9.50325 9.52803 9.52767C9.47918 9.57884 9.41319 9.60988 9.3429 9.61475C9.26857 9.61175 9.19807 9.58066 9.14544 9.52767C8.03693 8.37426 6.59538 7.60299 5.02632 7.32381C3.45725 7.04464 1.84078 7.27181 0.407368 7.97295C0.365388 7.99477 0.318839 8.00613 0.271606 8.00613C0.224373 8.00613 0.177824 7.99477 0.135844 7.97295C0.0937841 7.95002 0.0588358 7.91582 0.0348752 7.87411C0.0109146 7.8324 -0.00112471 7.78481 8.26605e-05 7.73663L8.26605e-05 0.273975C4.47066e-05 0.236971 0.00745166 0.200365 0.0218622 0.166329C0.0362727 0.132294 0.0573888 0.101494 0.0839238 0.0759153C0.110459 0.0503368 0.141868 0.0304585 0.176249 0.0174618C0.210629 0.00446606 0.247269 -0.00137711 0.283951 0.000305176H7.68909C7.73699 0.000305176 7.78423 0.0115881 7.82708 0.0331764C7.86992 0.0547647 7.90719 0.0861101 7.93593 0.124728C7.95969 0.168599 7.97214 0.217769 7.97214 0.267751C7.97214 0.317733 7.95969 0.366902 7.93593 0.410772C7.2621 1.84607 7.0521 3.45826 7.33551 5.0202C7.61892 6.58213 8.38145 8.01509 9.51569 9.11721C9.54807 9.1416 9.57401 9.17364 9.59122 9.2105C9.60844 9.24737 9.61641 9.28793 9.61443 9.32863Z" fill="black"/>
<path d="M23.5555 47.4153L46.4643 24.0384L23.5555 0.66143L0.646635 24.0384L23.5555 47.4153ZM47.1121 24.0384C47.1072 24.1103 47.0781 24.1782 47.0297 24.2307L23.6968 47.9922C23.6726 48.0184 23.6434 48.0393 23.611 48.0536C23.5786 48.0678 23.5437 48.0752 23.5084 48.0752C23.4731 48.0752 23.4382 48.0678 23.4058 48.0536C23.3734 48.0393 23.3441 48.0184 23.3199 47.9922L0.0812708 24.2547C0.0556046 24.23 0.035156 24.2002 0.0211804 24.1671C0.00720468 24.1341 0 24.0985 0 24.0624C0 24.0264 0.00720468 23.9908 0.0211804 23.9577C0.035156 23.9246 0.0556046 23.8948 0.0812708 23.8701L23.3199 0.0845451C23.3441 0.0583534 23.3734 0.0374794 23.4058 0.0232162C23.4382 0.00895691 23.4731 0.00157547 23.5084 0.00157547C23.5437 0.00157547 23.5786 0.00895691 23.611 0.0232162C23.6434 0.0374794 23.6726 0.0583534 23.6968 0.0845451L47.0297 23.8701C47.0748 23.9152 47.1039 23.9745 47.1121 24.0384Z" fill="black"/>
<path d="M28.8062 27.3345C28.8511 27.3837 28.9017 27.4269 28.957 27.4632C29.5866 27.9594 30.3532 28.239 31.1472 28.2622C31.9413 28.2853 32.7221 28.0507 33.3782 27.592C33.8843 27.1488 34.3095 26.6172 34.6343 26.0218C35.0464 25.2105 35.6621 24.5264 36.4179 24.0399C35.6621 23.5533 35.0464 22.8691 34.6343 22.0578C34.3097 21.4586 33.8845 20.9228 33.3782 20.4749C32.7259 20.0042 31.942 19.7636 31.1445 19.7891C30.3471 19.8146 29.5793 20.105 28.957 20.6164C28.9023 20.6486 28.8517 20.6876 28.8062 20.7323C29.0867 20.8301 29.3436 20.988 29.5599 21.1956C29.8778 21.5437 30.0492 22.006 30.0372 22.4826C30.0364 22.9641 29.8515 23.4261 29.5222 23.7696C29.4343 23.861 29.3375 23.943 29.2333 24.0141C29.3401 24.0764 29.4375 24.1544 29.5222 24.2457C29.8429 24.5949 30.0263 25.0533 30.0372 25.5327C30.0445 25.7689 30.0061 26.0043 29.9242 26.2252C29.8423 26.4461 29.7184 26.6481 29.5599 26.8197C29.3485 27.0458 29.0912 27.2216 28.8062 27.3345ZM37.4981 24.0399C37.4975 24.1045 37.4763 24.167 37.4378 24.2182C37.3992 24.2693 37.3454 24.3061 37.2845 24.323C36.8066 24.4855 36.3667 24.7479 35.9927 25.0935C35.6187 25.439 35.3186 25.8603 35.1116 26.3306C34.7479 26.9877 34.2762 27.5755 33.7174 28.0681C32.975 28.5976 32.0867 28.8695 31.1826 28.8441C30.2784 28.8186 29.406 28.497 28.6932 27.9265C28.4583 27.7735 28.2572 27.5719 28.1028 27.3345C28.0809 27.2931 28.0693 27.2466 28.0693 27.1994C28.0693 27.1521 28.0809 27.1057 28.1028 27.0642C28.1234 27.0213 28.1534 26.9839 28.1904 26.9548C28.2275 26.9258 28.2706 26.906 28.3164 26.8969C28.6593 26.8533 28.9801 26.7003 29.2333 26.4594C29.341 26.3479 29.4256 26.215 29.4817 26.069C29.5378 25.923 29.5644 25.7668 29.5599 25.6099C29.5641 25.4393 29.5352 25.2695 29.4749 25.1104C29.4145 24.9513 29.3238 24.8062 29.2082 24.6833C28.9785 24.4564 28.6731 24.3276 28.3541 24.323H27.1985C27.1252 24.323 27.0549 24.2931 27.0031 24.24C26.9513 24.1869 26.9222 24.1149 26.9222 24.0399C26.9205 24.0016 26.9264 23.9634 26.9395 23.9275C26.9526 23.8917 26.9727 23.8589 26.9985 23.8312C27.0243 23.8035 27.0554 23.7816 27.0898 23.7666C27.1241 23.7515 27.1611 23.7438 27.1985 23.7438H28.3541C28.6731 23.7392 28.9785 23.6104 29.2082 23.3835C29.3238 23.2606 29.4145 23.1154 29.4749 22.9563C29.5352 22.7972 29.5641 22.6274 29.5599 22.4568C29.5644 22.2999 29.5378 22.1438 29.4817 21.9977C29.4256 21.8517 29.341 21.719 29.2333 21.6074C28.9769 21.3714 28.6577 21.219 28.3164 21.1698C28.2706 21.1608 28.2275 21.141 28.1904 21.1119C28.1534 21.0829 28.1234 21.0454 28.1028 21.0025C28.0819 20.9607 28.071 20.9144 28.071 20.8674C28.071 20.8204 28.0819 20.7741 28.1028 20.7323C28.2606 20.4979 28.4611 20.2968 28.6932 20.1402C29.4082 19.5735 30.281 19.2555 31.1847 19.2323C32.0884 19.2092 32.9756 19.4822 33.7174 20.0116C34.2788 20.4966 34.751 21.0806 35.1116 21.7361C35.3179 22.2084 35.6175 22.6319 35.9915 22.9796C36.3655 23.3274 36.8058 23.592 37.2845 23.7567C37.3424 23.7704 37.3944 23.8028 37.4329 23.8492C37.4713 23.8956 37.4942 23.9534 37.4981 24.0141V24.0399Z" fill="black"/>
<path d="M26.5135 18.1637L26.6171 18.015C27.0747 17.4012 27.3345 16.644 27.3573 15.8576C27.3802 15.0711 27.1649 14.2979 26.7438 13.6546C26.3425 13.1558 25.8632 12.7366 25.3275 12.4158C24.6185 12.0022 24.0229 11.3957 23.6003 10.6568C23.166 11.4 22.5534 12.0033 21.827 12.4034C21.2948 12.7243 20.8192 13.1437 20.4223 13.6422C20.0012 14.2855 19.7859 15.0587 19.8087 15.8451C19.8315 16.6316 20.0913 17.3888 20.5489 18.0026L20.6526 18.1513C20.7347 17.872 20.8767 17.6175 21.0671 17.408C21.22 17.25 21.4005 17.1259 21.5981 17.043C21.7957 16.9601 22.0065 16.92 22.2185 16.9249C22.6491 16.9269 23.062 17.1091 23.37 17.4328C23.4488 17.5191 23.5183 17.6147 23.5773 17.7177C23.6439 17.6173 23.717 17.5221 23.796 17.4328C24.1103 17.1229 24.5212 16.951 24.9475 16.951C25.3738 16.951 25.7847 17.1229 26.099 17.4328C26.2878 17.6386 26.4297 17.8888 26.5135 18.1637ZM27.8837 15.6861C27.8678 16.654 27.5742 17.5928 27.0432 18.3742C26.903 18.5997 26.7231 18.7933 26.5135 18.9441C26.4761 18.9647 26.4346 18.9755 26.3926 18.9755C26.3505 18.9755 26.3091 18.9647 26.2717 18.9441C26.2315 18.9267 26.1964 18.8979 26.17 18.8609C26.1437 18.8238 26.1271 18.7798 26.122 18.7335C26.0753 18.3978 25.9394 18.0837 25.7305 17.8292C25.526 17.6192 25.2532 17.5036 24.9705 17.5071C24.8179 17.5029 24.6659 17.5314 24.5236 17.5909C24.3813 17.6505 24.2514 17.7399 24.1415 17.854C23.9385 18.0805 23.8232 18.3817 23.8191 18.6963V19.8484C23.8273 19.8899 23.8267 19.9328 23.8175 19.9741C23.8083 20.0154 23.7906 20.0539 23.7658 20.0868C23.7409 20.1198 23.7096 20.1464 23.674 20.1646C23.6384 20.1829 23.5994 20.1924 23.56 20.1924C23.5205 20.1924 23.4816 20.1829 23.446 20.1646C23.4104 20.1464 23.379 20.1198 23.3542 20.0868C23.3294 20.0539 23.3117 20.0154 23.3025 19.9741C23.2933 19.9328 23.2927 19.8899 23.3009 19.8484V18.6963C23.2968 18.3817 23.1815 18.0805 22.9785 17.854C22.8686 17.7399 22.7387 17.6505 22.5964 17.5909C22.454 17.5314 22.3021 17.5029 22.1495 17.5071C21.8668 17.5036 21.594 17.6192 21.3895 17.8292C21.1765 18.0807 21.0399 18.3963 20.998 18.7335C20.9929 18.7798 20.9763 18.8238 20.95 18.8609C20.9236 18.8979 20.8885 18.9267 20.8483 18.9441C20.8112 18.9658 20.7696 18.9771 20.7274 18.9771C20.6852 18.9771 20.6436 18.9658 20.6065 18.9441C20.3932 18.7941 20.2093 18.6005 20.0653 18.3742C19.5449 17.6636 19.2524 16.7908 19.2317 15.8864C19.2109 14.9819 19.463 14.0947 19.9502 13.3573C20.3849 12.7962 20.9118 12.3259 21.5046 11.9699C21.924 11.7664 22.2998 11.4722 22.6089 11.1057C22.9179 10.7391 23.1535 10.3079 23.3009 9.83915C23.3156 9.7778 23.348 9.72313 23.3936 9.68302C23.4392 9.64291 23.4954 9.61948 23.5542 9.61619C23.6136 9.61744 23.6708 9.64009 23.7167 9.68053C23.7627 9.72096 23.7947 9.77682 23.8076 9.83915C23.9568 10.3069 24.1931 10.7371 24.5019 11.1034C24.8107 11.4697 25.1856 11.7645 25.6038 11.9699C26.1988 12.3226 26.7262 12.7933 27.1583 13.3573C27.6227 14.0175 27.8771 14.821 27.8837 15.6489V15.6861Z" fill="black"/>
<path d="M23.5456 26.5533C23.729 25.979 24.0271 25.4575 24.4179 25.0273C24.8919 24.5192 25.4706 24.1453 26.1043 23.9374C25.4721 23.7191 24.8948 23.3415 24.4179 22.8346C24.0261 22.4203 23.7275 21.911 23.5456 21.3471C23.3686 21.9248 23.0697 22.4478 22.6733 22.8731C22.199 23.3772 21.626 23.7544 20.9985 23.9758C21.6274 24.1874 22.2015 24.5611 22.6733 25.0658C23.0597 25.4849 23.3575 25.9928 23.5456 26.5533ZM27.8837 23.9887C27.8838 24.0268 27.8768 24.0646 27.8632 24.0997C27.8496 24.1347 27.8297 24.1665 27.8047 24.1929C27.7797 24.2192 27.7501 24.2397 27.7177 24.2531C27.6853 24.2665 27.6508 24.2726 27.6162 24.2708C26.5656 24.313 25.5633 24.7678 24.79 25.5531C24.4539 25.943 24.1937 26.4047 24.0257 26.9098C23.8577 27.4148 23.7853 27.9525 23.8131 28.4896C23.8214 28.5326 23.8208 28.577 23.8115 28.6197C23.8022 28.6625 23.7843 28.7023 23.7592 28.7364C23.7342 28.7706 23.7025 28.7981 23.6665 28.817C23.6306 28.8359 23.5912 28.8457 23.5514 28.8457C23.5116 28.8457 23.4722 28.8359 23.4363 28.817C23.4003 28.7981 23.3686 28.7706 23.3436 28.7364C23.3185 28.7023 23.3006 28.6625 23.2913 28.6197C23.282 28.577 23.2815 28.5326 23.2897 28.4896C23.3137 27.951 23.2396 27.4125 23.0718 26.906C22.904 26.3994 22.6459 25.9351 22.3128 25.5403C21.539 24.7559 20.537 24.3013 19.4866 24.258C19.4187 24.258 19.3537 24.2282 19.3057 24.1753C19.2577 24.1224 19.2307 24.0507 19.2307 23.9758C19.2292 23.9377 19.2346 23.8996 19.2468 23.8639C19.2589 23.8282 19.2775 23.7956 19.3014 23.768C19.3254 23.7405 19.3541 23.7185 19.3859 23.7035C19.4177 23.6886 19.452 23.6809 19.4866 23.6809C20.5291 23.6532 21.5296 23.2219 22.3128 22.4627C22.6459 22.0679 22.904 21.6035 23.0718 21.097C23.2396 20.5904 23.3137 20.052 23.2897 19.5134C23.2897 19.4386 23.3167 19.3668 23.3647 19.3139C23.4127 19.261 23.4777 19.2313 23.5456 19.2313C23.5802 19.2295 23.6147 19.2356 23.6471 19.249C23.6795 19.2624 23.7091 19.2829 23.7341 19.3092C23.7591 19.3356 23.779 19.3673 23.7926 19.4024C23.8061 19.4375 23.8131 19.4753 23.8131 19.5134C23.7858 20.0524 23.8583 20.5919 24.0263 21.0989C24.1942 21.606 24.4541 22.07 24.79 22.4627C25.5691 23.221 26.5657 23.6523 27.6046 23.6809C27.6604 23.6876 27.7129 23.7135 27.7547 23.7549C27.7964 23.7963 27.8253 23.8512 27.8372 23.9117L27.8837 23.9887Z" fill="black"/>
</svg>
