<svg width="822" height="90" viewBox="0 0 822 90" fill="none" xmlns="http://www.w3.org/2000/svg">
<path d="M40.9379 15.5482C33.9757 15.5482 28.5849 18.1794 24.7656 23.4419C20.9464 28.6645 19.0367 35.9601 19.0367 45.3289C19.0367 64.8239 26.3371 74.5714 40.9379 74.5714C47.0647 74.5714 54.4844 73.0365 63.1972 69.9668V85.515C56.036 88.505 48.0394 90 39.2073 90C26.5162 90 16.8088 86.1528 10.0853 78.4585C3.36176 70.7243 0 59.6412 0 45.2093C0 36.1196 1.65104 28.1661 4.95313 21.3488C8.25522 14.4917 12.9895 9.24917 19.1561 5.62126C25.3624 1.95349 32.623 0.119601 40.9379 0.119601C49.4119 0.119601 57.9258 2.17276 66.4794 6.27907L60.5117 21.3488C57.2494 19.794 53.9672 18.4385 50.6651 17.2824C47.3631 16.1262 44.1207 15.5482 40.9379 15.5482Z" fill="#C27C36"/>
<path d="M127.893 88.804L121.568 67.9934H89.7603L83.4346 88.804H63.5027L94.2957 1.01661H116.913L147.825 88.804H127.893ZM117.152 52.4452C111.303 33.588 108.001 22.9236 107.245 20.4518C106.529 17.9801 106.012 16.0266 105.694 14.5914C104.381 19.6944 100.621 32.3123 94.415 52.4452H117.152Z" fill="#C27C36"/>
<path d="M170.032 40.186H176C181.848 40.186 186.164 39.2093 188.949 37.2558C191.734 35.3023 193.127 32.2326 193.127 28.0465C193.127 23.9003 191.694 20.9502 188.83 19.196C186.005 17.4419 181.609 16.5648 175.642 16.5648H170.032V40.186ZM170.032 55.2558V88.804H151.532V1.37542H176.954C188.81 1.37542 197.583 3.54817 203.272 7.89369C208.961 12.1993 211.805 18.7575 211.805 27.5681C211.805 32.711 210.393 37.2957 207.568 41.3223C204.744 45.309 200.745 48.4385 195.573 50.711C208.702 70.3654 217.256 83.0631 221.234 88.804H200.706L179.879 55.2558H170.032Z" fill="#C27C36"/>
<path d="M278.292 88.804L271.966 67.9934H240.159L233.833 88.804H213.901L244.694 1.01661H267.311L298.224 88.804H278.292ZM267.55 52.4452C261.702 33.588 258.4 22.9236 257.644 20.4518C256.928 17.9801 256.411 16.0266 256.092 14.5914C254.779 19.6944 251.02 32.3123 244.814 52.4452H267.55Z" fill="#C27C36"/>
<path d="M346.807 1.37542H365.486L335.827 88.804H315.656L286.057 1.37542H304.736L321.147 53.402C322.062 56.4718 322.997 60.0598 323.951 64.1661C324.946 68.2326 325.563 71.0631 325.801 72.6578C326.239 68.99 327.731 62.5714 330.277 53.402L346.807 1.37542Z" fill="#C27C36"/>
<path d="M417.71 88.804L411.384 67.9934H379.577L373.251 88.804H353.319L384.112 1.01661H406.73L437.642 88.804H417.71ZM406.968 52.4452C401.12 33.588 397.818 22.9236 397.062 20.4518C396.346 17.9801 395.829 16.0266 395.51 14.5914C394.198 19.6944 390.438 32.3123 384.232 52.4452H406.968Z" fill="#C27C36"/>
<path d="M518.749 88.804H495.237L457.283 22.6645H456.745C457.501 34.3455 457.879 42.6777 457.879 47.6611V88.804H441.349V1.37542H464.682L502.577 66.8571H502.995C502.398 55.495 502.099 47.4618 502.099 42.7575V1.37542H518.749V88.804Z" fill="#C27C36"/>
<path d="M557.851 88.804V1.37542H576.351V88.804H557.851Z" fill="#C27C36"/>
<path d="M668.379 88.804H644.866L606.912 22.6645H606.375C607.131 34.3455 607.509 42.6777 607.509 47.6611V88.804H590.979V1.37542H614.312L652.207 66.8571H652.624C652.028 55.495 651.729 47.4618 651.729 42.7575V1.37542H668.379V88.804Z" fill="#C27C36"/>
<path d="M701.268 88.804H683.066V1.37542H733.075V16.5648H701.268V39.1096H730.867V54.2392H701.268V88.804Z" fill="#C27C36"/>
<path d="M822 44.9701C822 59.4419 818.419 70.5648 811.258 78.3389C804.097 86.113 793.833 90 780.465 90C767.098 90 756.833 86.113 749.672 78.3389C742.511 70.5648 738.931 59.402 738.931 44.8505C738.931 30.299 742.511 19.196 749.672 11.5415C756.873 3.84718 767.177 0 780.585 0C793.992 0 804.236 3.86711 811.318 11.6013C818.439 19.3355 822 30.4585 822 44.9701ZM758.325 44.9701C758.325 54.7375 760.175 62.093 763.875 67.0365C767.575 71.9801 773.105 74.4518 780.465 74.4518C795.225 74.4518 802.605 64.6246 802.605 44.9701C802.605 25.2757 795.265 15.4286 780.585 15.4286C773.225 15.4286 767.675 17.9203 763.935 22.9037C760.195 27.8472 758.325 35.2027 758.325 44.9701Z" fill="#C27C36"/>
</svg>
