<svg width="336" height="42" viewBox="0 0 336 42" fill="none" xmlns="http://www.w3.org/2000/svg">
<path d="M14.7936 6.8C13.8006 6.8 12.9146 7.11185 12.1358 7.73555C11.357 8.33976 10.7047 9.22658 10.179 10.396C9.65328 11.546 9.25413 12.9493 8.98154 14.606C8.70894 16.2627 8.57265 18.1338 8.57265 20.2193C8.57265 23.1039 8.81603 25.511 9.3028 27.4405C9.80904 29.3701 10.5587 30.8124 11.5517 31.7674C12.5447 32.7225 13.7908 33.2 15.2901 33.2C16.6725 33.2 17.9965 32.9369 19.2621 32.4106C20.5472 31.8844 21.8323 31.2509 23.1173 30.5103V39.6319C21.7544 40.431 20.2746 41.0255 18.678 41.4153C17.1009 41.8051 15.4264 42 13.6545 42C10.2666 42 7.4044 41.1619 5.0679 39.4857C2.75088 37.8095 0.988769 35.344 -0.218421 32.089C-1.40614 28.8341 -2 24.858 -2 20.1608C-2 16.8669 -1.63979 13.8653 -0.91937 11.1561C-0.179479 8.44696 -1.60085 5.65525 -0.218421 3.70619C1.16401 1.75713 2.82876 0.256353 4.77584 -0.796139C6.74239 -1.86812 11.4446 -1.94153 13.9174 -1.94153C15.8061 -1.94153 17.6168 -1.6979 19.3497 -1.21063C21.1021 -0.723366 22.835 0.0367663 24.5484 1.06977L21.8615 9.43123C20.7322 8.63212 19.5931 7.99867 18.4443 7.5309C17.2956 7.04363 16.0786 6.8 14.7936 6.8Z" fill="white"/>
<path d="M47.0396 41.4153L45.4332 33.0831H36.2041L34.5977 41.4153H23.587L33.9844 -1.32757H47.39L57.9335 41.4153H47.0396ZM43.8561 24.3415L42.1329 14.7814C41.9382 13.7094 41.7532 12.6667 41.578 11.6532C41.4222 10.6396 41.2762 9.67486 41.1399 8.7588C41.0231 7.82326 40.916 6.95592 40.8186 6.15681C40.7408 6.91694 40.6337 7.75504 40.4974 8.6711C40.3806 9.58715 40.2345 10.5519 40.0593 11.5654C39.884 12.5595 39.6991 13.5925 39.5044 14.6645L37.6936 24.3415H43.8561Z" fill="white"/>
<path d="M70.4945 -1.32757C73.8045 -1.32757 76.5596 -0.859801 78.7598 0.0757475C80.9601 1.0113 82.6053 2.41462 83.6957 4.28571C84.7861 6.13732 85.3313 8.47619 85.3313 11.3023C85.3313 12.959 85.1171 14.489 84.6887 15.8924C84.2604 17.2957 83.6178 18.5723 82.7611 19.7223C81.9044 20.8722 80.8238 21.8955 79.5192 22.792L88.4271 41.4153H77.2411L70.5529 25.3648H69.2386V41.4153H59.0749V-1.32757H70.4945ZM70.3777 7.18007H69.2386V17.4711H70.3193C71.838 17.4711 72.977 17.0033 73.7364 16.0678C74.4957 15.1322 74.8754 13.7192 74.8754 11.8286C74.8754 10.2693 74.4957 9.10963 73.7364 8.3495C72.9965 7.56988 71.8769 7.18007 70.3777 7.18007Z" fill="white"/>
<path d="M109.195 41.4153L107.589 33.0831H98.3596L96.7532 41.4153H85.7425L96.1399 -1.32757H109.546L120.089 41.4153H109.195ZM106.012 24.3415L104.288 14.7814C104.094 13.7094 103.909 12.6667 103.734 11.6532C103.578 10.6396 103.432 9.67486 103.295 8.7588C103.179 7.82326 103.071 6.95592 102.974 6.15681C102.896 6.91694 102.789 7.75504 102.653 8.6711C102.536 9.58715 102.39 10.5519 102.215 11.5654C102.04 12.5595 101.855 13.5925 101.66 14.6645L99.8491 24.3415H106.012Z" fill="white"/>
<path d="M151.196 -1.32757L140.302 41.4153H128.473L117.696 -1.32757H128.357L132.65 19.7515C132.845 20.687 133.059 21.837 133.293 23.2013C133.546 24.5657 133.77 25.9203 133.964 27.2651C134.159 28.61 134.295 29.7112 134.373 30.5688C134.49 29.7112 134.646 28.6197 134.84 27.2944C135.055 25.9495 135.279 24.6047 135.512 23.2598C135.765 21.8955 135.989 20.7455 136.184 19.81L140.536 -1.32757H151.196Z" fill="white"/>
<path d="M172.285 41.4153L170.679 33.0831H161.45L159.843 41.4153H148.833L159.23 -1.32757H172.636L183.179 41.4153H172.285ZM169.102 24.3415L167.379 14.7814C167.184 13.7094 166.999 12.6667 166.824 11.6532C166.668 10.6396 166.522 9.67486 166.385 8.7588C166.269 7.82326 166.162 6.95592 166.064 6.15681C165.986 6.91694 165.879 7.75504 165.743 8.6711C165.626 9.58715 165.48 10.5519 165.305 11.5654C165.13 12.5595 164.945 13.5925 164.75 14.6645L162.939 24.3415H169.102Z" fill="white"/>
<path d="M216.506 41.4153H204.648L193.52 14.8399H193.287C193.404 16.3991 193.491 17.8512 193.55 19.196C193.627 20.5214 193.676 21.7298 193.696 22.8213C193.735 23.8932 193.754 24.8385 193.754 25.6571V41.4153H184.32V-1.32757H196.091L207.16 24.5169H207.393C207.315 23.0746 207.247 21.7298 207.189 20.4824C207.13 19.235 207.082 18.0851 207.043 17.0326C207.004 15.9801 206.984 15.025 206.984 14.1674V-1.32757H216.506V41.4153Z" fill="white"/>
<path d="M229.303 41.4153V-1.32757H239.466V41.4153H229.303Z" fill="white"/>
<path d="M276.327 41.4153H264.469L253.342 14.8399H253.108C253.225 16.3991 253.313 17.8512 253.371 19.196C253.449 20.5214 253.498 21.7298 253.517 22.8213C253.556 23.8932 253.575 24.8385 253.575 25.6571V41.4153H244.142V-1.32757H255.912L266.981 24.5169H267.215C267.137 23.0746 267.069 21.7298 267.01 20.4824C266.952 19.235 266.903 18.0851 266.864 17.0326C266.825 15.9801 266.806 15.025 266.806 14.1674V-1.32757H276.327V41.4153Z" fill="white"/>
<path d="M291.166 41.4153H281.002V-1.32757H301.447V7.29701H291.166V16.4478H300.687V25.0724H291.166V41.4153Z" fill="white"/>
<path d="M336 19.9854C336 23.5716 335.65 26.7389 334.949 29.487C334.267 32.2157 333.235 34.5156 331.853 36.3867C330.49 38.2383 328.796 39.6416 326.771 40.5967C324.765 41.5322 322.439 42 319.791 42C317.162 42 314.835 41.5225 312.81 40.5674C310.785 39.6124 309.082 38.2091 307.699 36.3575C306.317 34.4864 305.275 32.1767 304.574 29.4286C303.873 26.6804 303.523 23.5132 303.523 19.9269C303.523 15.1712 304.136 11.1659 305.363 7.91096C306.609 4.65604 308.439 2.19048 310.853 0.514286C313.287 -1.1619 316.266 -2 319.791 -2C323.334 -2 326.304 -1.17165 328.698 0.48505C331.113 2.14175 332.933 4.60731 334.16 7.88173C335.387 11.1367 336 15.1712 336 19.9854ZM314.095 19.9854C314.095 22.8895 314.31 25.3161 314.738 27.2651C315.166 29.2142 315.799 30.676 316.636 31.6505C317.493 32.6055 318.544 33.0831 319.791 33.0831C321.076 33.0831 322.127 32.6153 322.945 31.6797C323.782 30.7442 324.395 29.3116 324.785 27.3821C325.194 25.433 325.398 22.9674 325.398 19.9854C325.398 15.4636 324.931 12.1307 323.996 9.98671C323.081 7.82326 321.679 6.74153 319.791 6.74153C318.544 6.74153 317.493 7.23854 316.636 8.23256C315.799 9.20709 315.166 10.6786 314.738 12.6472C314.31 14.5962 314.095 17.0423 314.095 19.9854Z" fill="white"/>
</svg>
